<?xml version="1.0" standalone="no"?><!DOCTYPE svg PUBLIC "-//W3C//DTD SVG 1.1//EN" "http://www.w3.org/Graphics/SVG/1.1/DTD/svg11.dtd"><svg t="1631021226303" class="icon" viewBox="0 0 1024 1024" version="1.1" xmlns="http://www.w3.org/2000/svg" p-id="104199" xmlns:xlink="http://www.w3.org/1999/xlink" width="200" height="200"><defs><style type="text/css"></style></defs><path d="M183.978667 616.789333l37.205333 41.642667c-39.594667 11.946667-65.877333 34.133333-81.92 53.589333-25.941333 31.061333-39.253333 71.68-36.181333 106.837334h-68.266667c13.994667-29.354667 68.608-115.370667 149.162667-202.069334z m790.869333 220.842667h-82.944c-190.464-99.328-357.717333-169.642667-535.210667-185.002667 0.341333-24.576 4.778667-52.906667 13.312-83.968l-16.384-4.437333c-8.533333 32.085333-13.312 61.098667-13.653333 87.04-18.432-1.365333-37.205333-1.706667-55.978667-1.706667-14.677333 0-29.354667 1.365333-43.690666 4.096-15.701333-15.701333-30.72-32.085333-44.373334-49.493333 81.578667-84.992 217.088-162.133333 334.165334-191.146667 33.109333 109.909333 103.765333 185.002667 190.122666 235.861334 6.485333-3.754667 12.629333-7.509333 18.773334-11.264l150.186666 161.792 6.144-0.682667c41.301333-3.754667 64.170667 18.773333 70.314667 25.941333 4.437333 4.437333 6.826667 8.874667 9.216 12.970667z" fill="#D1A41B" p-id="104200"></path><path d="M901.802667 296.618667c3.072 149.162667-73.386667 267.946667-179.541334 329.045333-180.906667-90.112-215.04-318.805333-183.978666-441.344 8.533333 47.104 24.234667 76.458667 58.026666 90.453333 73.386667-20.821333 174.762667-22.869333 248.832-2.048 30.72-22.869333 43.008-57.002667 49.493334-87.04 7.850667 35.157333 6.826667 110.933333 7.168 110.933334z" fill="#FFDC76" p-id="104201"></path><path d="M446.464 437.930667l27.648 81.92-83.968-56.32 56.32-25.6z m-80.896 35.84l29.354667 50.858666-62.464-31.744 33.109333-19.114666z m-67.242667 39.936l13.994667 50.858666-43.008-29.354666 29.013333-21.504z m457.045334 136.874666l-26.624 40.96 47.104-21.504-20.48-19.456z m41.984 47.104l-42.666667 32.768 59.392-15.36-16.725333-17.408zM692.906667 253.610667l31.744 69.290666 20.48-70.314666-52.224 1.024z m-160.426667 101.034666l50.176 26.624-45.056 3.072-5.12-29.696z m12.288 54.272l30.72 12.288-25.941333 7.168-4.778667-19.456z m357.717333-34.816l-41.301333 17.066667 33.792 5.12 7.509333-22.186667z m-16.384 50.176l-31.744 9.216 25.6 9.216 6.144-18.432z m-370.346666 76.458667h98.986666v12.288h-98.986666v-12.288z m0-29.354667h98.986666v12.288h-98.986666v-12.288z m301.397333 29.354667h98.986667v12.288h-98.986667v-12.288z m0-29.354667h98.986667v12.288h-98.986667v-12.288z m-35.157333-72.362666H621.226667v-10.922667h50.176c6.144-26.282667 7.168-51.541333 0-64.170667-2.730667-5.12-8.192-8.192-13.653334-7.850666-28.672 0-40.618667 30.378667-40.96 31.744l-10.24-4.096c0.682667-1.365333 15.018667-38.570667 51.2-38.570667 9.557333-0.341333 18.773333 5.12 23.210667 13.653333 9.216 15.701333 7.850667 42.325333 1.706667 70.314667h87.722666c11.605333-34.474667 35.84-50.176 76.458667-50.176v10.922667c-44.032 0-56.32 18.773333-65.536 39.594666h47.786667v10.922667l-47.104-1.365333z" fill="#010202" p-id="104202"></path><path d="M789.504 453.973333c-12.970667-19.456-17.066667-35.498667-11.605333-54.272h-10.922667c-4.096 12.288-2.389333 31.061333 7.168 47.445334h-111.616c7.509333-15.018667 13.312-31.061333 17.749333-47.445334H669.013333c-5.12 18.090667-12.288 35.84-20.138666 50.176l-2.389334 4.437334 62.805334 39.253333-35.157334 23.210667 6.144 9.216 39.253334-25.941334 42.666666 27.648 6.144-9.216-39.253333-24.234666 61.44-40.277334h-1.024z m-70.656 33.109334l-46.08-29.013334h90.453333l-44.373333 29.013334z m201.386667-203.776c0-19.114667-6.144-99.669333-16.725334-121.856-29.354667 11.264-83.626667 47.445333-95.914666 84.992-60.416-8.533333-121.856-7.850667-181.930667 2.048-9.216-40.277333-58.026667-70.997333-94.549333-88.064-15.36 25.941333-22.186667 86.357333-20.48 129.024h-0.341334c6.826667 179.2 94.890667 291.157333 209.92 359.082666 118.101333-67.242667 203.093333-199.68 200.021334-365.226666z m-98.645334-34.816c0.341333 0 1.024 0.341333 1.365334 0.341333-0.682667 0-1.024-0.341333-1.365334-0.341333z m-7.509333-1.024c1.024 0.341333 2.048 0.341333 3.072 0.682666-1.024-0.341333-2.048-0.682667-3.072-0.682666z m87.722667 48.810666c3.072 149.162667-73.386667 267.946667-179.541334 329.045334-180.906667-90.112-215.04-318.805333-184.32-441.344 8.533333 47.104 24.234667 76.458667 58.026667 90.453333 73.386667-21.162667 174.762667-22.528 248.832-2.048 30.72-22.869333 43.008-57.002667 49.834667-87.04 7.850667 35.157333 6.826667 110.933333 7.168 110.933333z" fill="#010202" p-id="104203"></path><path d="M978.602667 813.056c-18.773333-20.821333-54.954667-30.72-85.333334-29.696-21.504-25.941333-146.773333-157.354667-146.773333-157.354667l-8.533333 10.922667 151.210666 162.474667 6.144-0.682667c41.301333-3.072 64.170667 18.773333 70.314667 25.941333 3.754667 3.754667 6.485333 8.192 8.533333 13.312h-82.944c-190.464-99.328-357.717333-169.642667-535.210666-185.002666 0.341333-24.917333 4.778667-52.906667 13.312-83.968l-16.384-4.437334c-8.533333 32.085333-13.312 61.098667-13.653334 87.04-18.432-1.365333-37.205333-1.706667-55.978666-1.706666-14.677333 0-29.354667 1.365333-43.690667 4.096-15.701333-15.701333-30.72-32.085333-44.373333-49.493334 82.602667-86.016 218.453333-163.498667 336.896-192.170666l-3.754667-16.725334c-126.976 30.72-266.24 114.346667-343.722667 194.56-35.84-48.469333-50.176-88.405333-54.272-118.442666-5.12-38.229333 3.754667-73.386667 26.282667-101.376C191.829333 326.314667 242.346667 323.242667 294.229333 332.117333c-1.024 8.192 0 16.042667 3.072 20.821334 13.653333 20.138667 87.04 27.306667 130.730667 7.509333-32.085333-45.397333-97.962667-67.242667-116.053333-58.709333-6.144 3.072-10.581333 8.192-13.653334 14.677333-17.749333-3.072-35.498667-5.461333-48.469333-5.461333-45.397333 0.341333-80.554667 16.384-106.496 48.469333-25.6 32.085333-35.84 71.338667-29.696 114.346667 6.144 40.618667 25.941333 83.968 59.733333 128.341333l-16.384 17.749333c-81.92 92.16-141.653333 190.805333-141.653333 207.189334v8.533333h108.544l-1.706667-10.24c-6.144-32.085333 6.144-72.704 31.061334-102.741333 15.701333-19.114667 41.642667-40.618667 82.602666-50.517334 36.181333 35.498667 82.602667 73.386667 134.485334 109.568h80.554666v-8.533333c0-9.216-4.437333-17.749333-13.312-23.552-12.629333-8.192-32.085333-9.216-50.176-3.072-17.066667-19.114667-26.624-44.714667-29.013333-76.458667 174.762667 15.36 342.357333 86.016 530.432 184.661334h103.765333l1.365334-6.826667c1.365333-9.216-3.754667-22.869333-14.336-34.816h-1.024zM139.264 711.68c-25.6 31.061333-39.253333 71.68-36.181333 106.837333h-68.266667c13.653333-29.696 68.608-115.370667 149.162667-202.410666 10.922667 13.653333 23.552 27.648 37.205333 41.642666-32.085333 9.557333-60.416 28.330667-81.92 53.930667z" fill="#010202" p-id="104204"></path></svg>