<?xml version="1.0" standalone="no"?><!DOCTYPE svg PUBLIC "-//W3C//DTD SVG 1.1//EN" "http://www.w3.org/Graphics/SVG/1.1/DTD/svg11.dtd"><svg class="icon" width="200px" height="200.00px" viewBox="0 0 1024 1024" version="1.1" xmlns="http://www.w3.org/2000/svg"><path d="M0 0m201.139993 0l622.053191 0q201.139993 0 201.139993 201.139993l0 621.720014q0 201.139993-201.139993 201.139993l-622.053191 0q-201.139993 0-201.139993-201.139993l0-621.720014q0-201.139993 201.139993-201.139993Z" fill="#F4518C" /><path d="M776.425051 240.010605H640.563007l61.575985-61.575986c10.612294-10.612294 10.612294-25.543545 0-36.155839s-25.543545-10.612294-36.155839 0l-103.901763 104.025162h-101.927383l-104.025161-104.025162c-8.514515-10.612294-21.224588-12.710073-33.934662-6.293337-2.097779 0-2.097779 2.097779-4.318957 4.195558-10.612294 10.612294-10.612294 25.543545 0 36.155839l63.673765 63.673765h-135.738645c-74.409457 0-135.862044 61.575985-135.862044 135.862044v337.495631c0 72.064881 61.452587 133.640866 135.862044 133.640866h21.224588a44.917152 44.917152 0 0 0 44.546955 44.670355c23.322367 0 44.546955-21.347987 44.546956-44.670355h314.173264c2.097779 25.543545 23.322367 44.670354 48.865912 42.449177 23.322367-2.097779 40.227999-19.126809 42.449177-42.449177h16.905631c74.286059 0 135.862044-61.575985 135.862044-135.862044V373.651471c-2.097779-74.286059-63.673765-133.640866-137.959823-133.640866z m-4.195558 524.197968H254.201463c-27.517925 0-48.742514-23.322367-50.840293-50.840293L201.139993 369.455913c0-27.641324 23.445766-50.963691 50.963691-50.963692H770.008315c27.641324 0 48.865912 23.322367 50.963691 50.963692l2.097779 343.912367c-2.097779 29.615704-23.322367 50.840293-50.840292 50.840293z" fill="#FFFFFF" opacity=".15" /><path d="M421.900389 435.227456l12.710073 63.673765-169.796705 31.836882-12.710073-63.673765z m163.503368 63.673765l12.710074-63.673765 169.796705 31.836882-12.710073 63.673765z m33.934662 133.764265c0 2.097779 0 6.416736-2.097779 8.514515-10.612294 23.322367-33.934661 38.130219-61.575986 40.351397-17.02903 0-33.934661-8.514515-44.546955-21.347987-12.710073 12.833472-27.641324 21.347987-44.670354 21.347987a77.741224 77.741224 0 0 1-61.452587-40.351397c0-2.221178-2.221178-4.318957-2.221178-8.514515 0-8.514515 6.416736-14.931251 14.931251-17.02903h2.097779c6.416736 0 10.612294 2.221178 12.710073 8.514515 0 0 17.02903 23.322367 31.836883 23.322367 29.739103 0 29.739103-25.420146 46.768133-44.546955 19.00341 21.224588 19.00341 44.546955 46.644734 44.546955 19.126809 0 31.836882-23.322367 31.836883-23.322367 2.097779-4.195558 8.514515-8.514515 12.710073-8.514515 8.514515-2.097779 14.931251 4.318957 17.02903 12.710073v4.318957z" fill="#FFFFFF" opacity=".15" /><path d="M759.766217 603.049781c-5.923141-5.923141-13.820662-9.871901-19.743803-13.820662-19.867202-9.9953-41.585385-17.892821-63.426967-21.841582s-45.410747-7.897521-69.226709-5.923141c-3.948761 0-5.923141 0-9.871901 1.974381-9.871901-83.047371-13.820662-164.243761-9.871902-247.414531-25.790343 8.02092-47.508526 19.867202-71.324488 27.764723 23.815962 120.683996 37.636624 241.49139 47.508526 364.149765h7.897521c17.892821 0 33.687864 0 51.457287-3.94876 21.841582-1.97438 43.559765-7.897521 65.401347-13.944061 21.718183-7.897521 41.461986-15.795042 57.380427-31.590085 9.871901-7.897521 17.769423-15.795042 19.743803-27.764723 5.923141-9.871901 3.948761-19.743803-5.923141-27.641324z m-120.683995 67.252329c-3.948761-23.692564-5.923141-45.534146-9.871902-67.252329 23.692564 5.923141 45.410747 15.795042 67.252329 23.692564-17.892821 15.918441-37.636624 29.739103-57.380427 43.559765z m-324.538761-69.226709a139.070412 139.070412 0 0 0-21.841582-13.820662c-19.743803-9.9953-41.585385-15.918441-63.303569-19.867202s-43.559765-5.923141-65.277948-3.94876c-3.948761 0-5.923141 0-9.871901 1.97438-9.9953-83.047371-15.918441-166.218141-11.969681-249.388911-23.692564 6.04654-47.508526 19.867202-69.226709 27.764723 23.815962 120.683996 37.636624 241.49139 47.508526 364.149765h7.897521a395.493053 395.493053 0 0 0 96.991432-11.846281 207.803526 207.803526 0 0 0 73.17547-33.687864c9.9953-7.897521 19.867202-17.769423 23.815962-29.739103 5.923141-11.846282 1.97438-21.718183-7.897521-31.590085zM193.736066 670.30211c-3.948761-23.692564-5.923141-45.534146-9.871901-67.252329 7.897521 0 59.354808 19.743803 65.277948 23.692564-15.795042 15.918441-35.538845 29.739103-55.406047 43.559765z m243.465771-75.14985c-1.97438-17.892821-1.97438-33.687864-3.948761-51.457286-1.97438-19.867202-3.948761-41.585385-3.948761-61.329188-1.97438-17.892821-1.97438-37.636624-3.94876-55.406047-1.97438-19.867202-1.97438-39.611005-3.948761-59.478207 0-5.923141 0-5.923141-5.923141-5.923141H413.385874c-7.897521 0-15.795042 0-21.718183 1.974381-5.923141 0-11.846282 1.97438-17.769423 1.97438 17.769423 98.965812 27.641324 199.906005 37.513226 300.846197 11.969681 0 23.815962 1.97438 35.662244 1.974381v-7.897521c-7.897521-23.815962-9.871901-43.559765-9.871901-65.277949z m445.222756 15.795042c-1.97438-19.743803-3.948761-37.636624-3.948761-57.380427-1.97438-19.743803-3.948761-41.585385-5.92314-61.329188s-1.97438-37.636624-3.948761-57.380427c-1.97438-23.815962-3.948761-45.534146-3.948761-69.350108 0-5.923141 0-5.923141-5.923141-5.923141h-17.892821c-7.897521 0-15.795042 1.97438-25.666944 3.948761 17.769423 98.965812 27.764723 199.906005 37.636625 300.846197 11.846282 0 23.692564 1.97438 35.538845 1.97438v-1.97438z m-61.329188-41.585384c-1.97438-15.795042-3.948761-33.564465-7.897521-49.482907 0-3.948761-1.97438-3.948761-3.948761-3.94876h-19.743803c-8.02092 1.97438-15.918441 1.97438-25.790342 3.94876 9.871901 53.431667 21.718183 106.863333 31.713483 160.295001 11.846282-1.97438 23.692564-1.97438 35.538846-3.948761-1.97438-13.820662-1.97438-25.666944-3.948761-37.513226-1.97438-21.841582-3.948761-45.534146-5.923141-69.350107z m-445.222756 0c-1.97438-15.795042-3.948761-31.590085-5.923141-49.482907 0-3.948761-1.97438-3.948761-5.923141-3.94876-9.9953 0-19.867202 1.97438-27.764723 1.97438-5.923141 0-9.871901 1.97438-15.795042 3.948761 9.871901 53.431667 21.718183 106.863333 31.590084 160.295 11.969681-1.97438 23.815962-1.97438 35.662244-3.948761V676.225251c-1.97438-13.820662-1.97438-29.615704-3.94876-43.559765-3.948761-21.718183-5.923141-43.436366-7.897521-63.303568z m126.607136-41.585385c0-5.923141 0-5.923141-5.923141-5.923141-13.820662-1.97438-27.641324 0-43.559765 0 5.923141 55.406047 9.871901 108.837714 15.918441 162.26938h35.538845v-5.923141c0-49.482906 0-98.965812-1.97438-150.423098z m447.320536 96.991432c0-31.590085-2.097779-63.303568-2.09778-96.991432 0-5.923141 0-5.923141-5.92314-5.923141-13.820662-1.97438-29.615704 0-43.436367 0 5.923141 55.406047 9.871901 108.837714 15.795042 162.26938h35.662245v-3.94876a259.631009 259.631009 0 0 0 0-55.406047zM336.261644 456.575443c1.97438 11.846282 3.948761 25.790343 3.948761 37.636625l1.97438 1.97438c5.923141 0 13.820662 0 19.867202-1.97438 0-7.897521-2.097779-13.820662-2.09778-19.867202-1.97438-13.820662-1.97438-25.666944-3.94876-39.487606l-1.97438-1.97438c-5.923141-1.97438-13.820662-1.97438-21.718184 0v3.94876c3.948761 7.897521 3.948761 13.820662 3.948761 19.743803z m453.243676 39.611005c5.923141 0 13.820662 0 19.743803-1.97438 0-7.897521-1.97438-13.820662-1.97438-21.841582-1.97438-11.846282-1.97438-25.666944-3.948761-37.513226a1.97438 1.97438 0 0 0-1.97438-1.97438 40.968391 40.968391 0 0 0-21.841582 0v1.97438c1.97438 19.743803 3.948761 39.487606 7.897521 59.354808 0 1.97438 2.097779 1.97438 2.097779 1.97438z m-308.743718 1.97438c0 1.97438 0 1.97438 1.97438 1.97438h19.743803v-55.406047c0-3.948761 0-3.948761-3.948761-5.92314-5.923141 0-11.846282 0-17.769422-1.974381z m447.197137 3.948761h19.743802v-59.354808l-1.97438-1.97438c-7.897521 0-13.820662-1.97438-21.718183-1.97438v1.97438c0 19.743803 0 39.611005 1.97438 59.354807a1.97438 1.97438 0 0 0 1.974381 1.974381z m-595.645856-3.948761c1.97438 0 1.97438-1.97438 1.974381-3.94876 0-5.923141 0-11.846282-1.974381-15.795043-1.97438-11.969681-3.948761-25.790343-5.923141-37.636624 0-1.97438 0-3.948761-3.94876-1.97438-5.923141 0-11.846282 1.97438-17.892822 1.97438 4.072159 19.743803 8.02092 41.585385 11.969681 61.329188 5.923141-1.97438 9.871901-3.948761 15.795042-3.948761z m443.248377 0a4.195558 4.195558 0 0 0 3.94876-3.94876c-1.97438-11.846282-1.97438-21.841582-3.94876-33.687864 0-5.923141-1.97438-13.820662-3.948761-19.743803 0-1.97438 0-3.948761-1.97438-3.948761-5.923141 0-11.846282 1.97438-19.743803 1.974381 3.948761 19.743803 7.897521 41.585385 11.846281 61.329187 3.948761 0 9.871901 0 13.820663-1.97438z m140.551197 3.948761l1.97438-1.974381v-55.406047c-1.97438-1.97438-1.97438-3.948761-3.948761-3.94876-5.923141 0-13.820662 0-19.867201 1.97438 2.097779 19.743803 2.097779 41.585385 4.072159 61.329188 5.923141-1.97438 11.846282-1.97438 17.769423-1.97438z m-445.222757 0l1.974381-1.974381v-55.406047l-1.974381-1.97438c-6.04654 0-13.944061 0-19.867201 1.97438 1.97438 19.743803 1.97438 41.585385 3.94876 61.329188 5.923141-3.948761 9.871901-3.948761 15.918441-3.94876z" fill="#FFFFFF" /></svg>