<?xml version="1.0" standalone="no"?><!DOCTYPE svg PUBLIC "-//W3C//DTD SVG 1.1//EN" "http://www.w3.org/Graphics/SVG/1.1/DTD/svg11.dtd"><svg class="icon" width="200px" height="200.00px" viewBox="0 0 1024 1024" version="1.1" xmlns="http://www.w3.org/2000/svg"><path d="M0 0m170.666667 0l682.666666 0q170.666667 0 170.666667 170.666667l0 682.666666q0 170.666667-170.666667 170.666667l-682.666666 0q-170.666667 0-170.666667-170.666667l0-682.666666q0-170.666667 170.666667-170.666667Z" fill="#170B1A" /><path d="M511.260444 300.657778c0.398222-62.293333 0-124.586667 0.398223-186.88h127.146666c0 11.093333 1.706667 22.186667 3.015111 32.426666h-93.866666v505.628445c0.398222 21.276444-5.12 43.064889-15.36 61.838222-17.066667 29.013333-46.933333 48.241778-80.668445 51.2a105.585778 105.585778 0 0 1-60.984889-12.8 103.367111 103.367111 0 0 1-35.84-32.028444c32.426667 18.375111 75.093333 16.668444 106.211556-3.811556A108.657778 108.657778 0 0 0 511.658667 625.777778c-0.398222-107.975111-0.398222-216.746667-0.398223-325.12z m209.92-35.84c17.464889 11.093333 37.546667 19.626667 58.026667 24.291555 11.946667 2.56 24.291556 3.868444 37.091556 3.868445v28.615111a182.385778 182.385778 0 0 1-95.118223-56.775111z" fill="#25F4EE" /><path d="M282.168889 423.537778a230.912 230.912 0 0 1 154.396444-32.426667v30.321778a233.244444 233.244444 0 0 0-42.211555 5.12 249.742222 249.742222 0 0 0-94.72 42.211555c-30.321778 22.584889-53.361778 53.304889-69.575111 87.438223a239.217778 239.217778 0 0 0 7.224889 217.6c8.988444 15.815111 18.773333 31.630222 32.028444 43.975111A229.148444 229.148444 0 0 1 203.207111 745.244444a236.657778 236.657778 0 0 1-32.426667-127.146666c1.706667-40.96 13.198222-81.066667 34.531556-116.053334 18.773333-32.426667 45.226667-58.88 76.8-78.506666z" fill="#25F4EE" /><path d="M548.408889 146.204444h94.264889c3.413333 18.375111 9.784889 35.384889 18.318222 51.598223 13.255111 25.201778 32.028444 47.786667 56.32 62.748444 1.706667 1.251556 2.56 2.104889 3.868444 3.811556 24.917333 28.444444 58.254222 48.355556 95.118223 56.775111 0.455111 32.824889 0 66.56 0 99.84a300.373333 300.373333 0 0 1-175.331556-55.466667c0 79.36 0 158.72 0.398222 238.08 0 10.695111 0.455111 20.878222 0 31.971556a257.592889 257.592889 0 0 1-34.133333 110.08c-16.611556 29.013333-39.253333 55.068444-66.104889 75.093333a215.552 215.552 0 0 1-120.775111 41.415111 261.575111 261.575111 0 0 1-65.706667-5.575111 247.296 247.296 0 0 1-84.024889-37.091556l-1.706666-1.706666a203.491556 203.491556 0 0 1-32.028445-43.975111 236.657778 236.657778 0 0 1-29.866666-113.038223 239.104 239.104 0 0 1 22.641777-104.561777c15.758222-34.133333 39.651556-64.853333 69.518223-87.438223a237.340444 237.340444 0 0 1 94.72-42.211555c13.653333-2.56 28.16-4.323556 42.268444-5.12 0.398222 12.8 0 25.144889 0.398222 37.546667V523.377778a90.282667 90.282667 0 0 0-49.891555-1.706667 126.293333 126.293333 0 0 0-54.215111 26.453333 100.352 100.352 0 0 0-23.04 29.013334c-9.784889 18.773333-13.198222 40.96-11.093334 61.895111a102.4 102.4 0 0 0 24.348445 55.409778c8.931556 11.093333 20.48 19.228444 31.971555 26.908444 9.386667 13.198222 21.333333 24.348444 35.84 32.028445 18.773333 9.784889 40.106667 14.506667 61.041778 12.743111 32.824889-2.104889 64-22.584889 80.611556-51.2a120.035556 120.035556 0 0 0 15.36-61.838223c1.308444-169.415111 0.853333-338.318222 0.853333-506.88z" fill="#FFFFFF" /><path d="M642.673778 146.204444c11.093333 0.455111 22.186667 0 33.678222 0 0 37.148444 11.548444 73.784889 32.881778 104.106667 2.56 3.811556 5.518222 7.224889 8.078222 10.638222a156.558222 156.558222 0 0 1-56.32-62.691555 215.381333 215.381333 0 0 1-18.318222-52.053334z m173.226666 175.388445c11.946667 2.56 24.291556 3.811556 37.091556 3.811555v128.398223a302.933333 302.933333 0 0 1-176.64-57.173334v254.748445c0.455111 19.228444-1.251556 38.4-5.518222 57.173333a235.804444 235.804444 0 0 1-93.468445 142.506667c-25.144889 18.318222-54.158222 30.72-83.626666 37.546666a234.154667 234.154667 0 0 1-110.08-1.706666 227.84 227.84 0 0 1-111.786667-67.413334 227.555556 227.555556 0 0 0 84.48 37.091556c21.333333 5.12 43.52 5.973333 65.706667 5.575111a212.366222 212.366222 0 0 0 120.775111-41.358222 243.541333 243.541333 0 0 0 66.104889-75.093333 257.592889 257.592889 0 0 0 34.133333-110.136889 400.099556 400.099556 0 0 0 0-31.971556c-0.398222-79.36-0.398222-158.72-0.398222-238.08a297.358222 297.358222 0 0 0 175.331555 55.466667c-2.104889-32.824889-1.251556-66.56-2.104889-99.384889z" fill="#FE2C55" /><path d="M437.020444 420.522667c11.946667 0 24.746667 0.455111 37.091556 2.161777v131.868445a102.115556 102.115556 0 0 0-55.466667-2.161778c-34.531556 7.68-64 34.133333-75.946666 67.811556-11.946667 32.881778-7.224889 71.68 13.653333 99.896889a120.661333 120.661333 0 0 1-31.971556-26.908445 103.765333 103.765333 0 0 1-24.348444-55.466667 110.762667 110.762667 0 0 1 11.093333-61.895111 95.004444 95.004444 0 0 1 23.04-29.013333c15.36-13.198222 34.588444-21.276444 54.215111-26.453333 16.611556-3.811556 34.133333-3.811556 49.891556 1.706666v-64.853333c-1.251556-11.036444-0.853333-23.893333-1.251556-36.693333z" fill="#FE2C55" /></svg>