<?xml version="1.0" standalone="no"?><!DOCTYPE svg PUBLIC "-//W3C//DTD SVG 1.1//EN" "http://www.w3.org/Graphics/SVG/1.1/DTD/svg11.dtd"><svg t="1631023584550" class="icon" viewBox="0 0 1024 1024" version="1.1" xmlns="http://www.w3.org/2000/svg" p-id="3482" xmlns:xlink="http://www.w3.org/1999/xlink" width="200" height="200"><defs><style type="text/css"></style></defs><path d="M512 0a398.222222 398.222222 0 0 1 398.222222 398.222222v227.555556a398.222222 398.222222 0 0 1-398.222222 398.222222H170.666667a56.888889 56.888889 0 0 1-56.888889-56.888889V56.888889a56.888889 56.888889 0 0 1 56.888889-56.888889h341.333333z m113.777778 227.555556H455.111111a113.777778 113.777778 0 0 0-113.777778 113.777777v341.333334a113.777778 113.777778 0 0 0 113.777778 113.777777h170.666667v-56.888888H512l-6.656-0.398223A56.888889 56.888889 0 0 1 455.111111 682.666667V341.333333l0.398222-6.656A56.888889 56.888889 0 0 1 512 284.444444h113.777778V227.555556z" fill="#1296db" p-id="3483"></path></svg>