<?xml version="1.0" standalone="no"?><!DOCTYPE svg PUBLIC "-//W3C//DTD SVG 1.1//EN" "http://www.w3.org/Graphics/SVG/1.1/DTD/svg11.dtd"><svg class="icon" width="200px" height="200.00px" viewBox="0 0 1024 1024" version="1.1" xmlns="http://www.w3.org/2000/svg"><path fill="#d81e06" d="M974.848 468.309333L547.84 41.301333c-24.576-24.576-64.512-24.576-89.088 0l-88.746667 88.746667 112.64 112.64c26.282667-9.216 55.978667-3.072 76.8 18.090667 20.138667 20.138667 27.306667 50.176 17.749334 77.482666l108.544 108.544c26.282667-9.216 56.32-3.072 77.482666 17.749334 19.114667 19.114667 26.282667 46.421333 19.456 72.362666s-27.306667 46.08-52.906666 52.906667c-25.941333 6.826667-53.589333-0.341333-72.362667-19.456-21.845333-21.845333-27.306667-54.272-16.384-81.578667l-101.034667-101.034666v265.898666c7.168 3.754667 13.994667 8.533333 19.797334 14.336 29.354667 29.354667 29.354667 76.8 0 106.154667-29.354667 29.354667-76.8 29.354667-106.154667 0s-29.354667-76.8 0-106.154667c6.826667-7.168 15.36-12.629333 24.576-16.384v-268.288c-9.216-3.754667-17.408-9.216-24.576-16.384-21.504-21.504-27.989333-53.930667-16.042667-81.92L326.656 173.738667 33.792 466.261333c-11.946667 11.946667-18.432 27.989333-18.432 44.373334 0 16.725333 6.485333 32.768 18.432 44.714666L460.8 982.357333c24.576 24.576 64.512 24.576 89.088 0l424.96-424.277333c24.576-24.576 24.576-64.512 0-89.088 0.341333-0.341333 0.341333-0.341333 0-0.682667"  /></svg>