<?xml version="1.0" standalone="no"?><!DOCTYPE svg PUBLIC "-//W3C//DTD SVG 1.1//EN" "http://www.w3.org/Graphics/SVG/1.1/DTD/svg11.dtd"><svg t="1631018801709" class="icon" viewBox="0 0 1024 1024" version="1.1" xmlns="http://www.w3.org/2000/svg" p-id="4520" xmlns:xlink="http://www.w3.org/1999/xlink" width="200" height="200"><defs><style type="text/css"></style></defs><path d="M69.8368 922.0096h162.8672v-395.6224L0 351.744v500.3776c0 38.6048 31.232 69.8368 69.8368 69.8368z" fill="#4285F4" p-id="4521"></path><path d="M791.296 922.0096h162.8672c38.6048 0 69.8368-31.232 69.8368-69.8368V351.8464l-232.704 174.5408v395.6224z" fill="#34A853" p-id="4522"></path><path d="M791.296 223.8464v302.5408L1024 351.744V258.7648c0-86.272-98.5088-135.5264-167.5776-83.7632l-65.1264 48.896z" fill="#FBBC04" p-id="4523"></path><path d="M232.704 526.336V223.8976L512 433.2544l279.296-209.408v302.5408L512 735.744z" fill="#EA4335" p-id="4524"></path><path d="M0 258.7136v93.1328l232.704 174.5408V223.744l-65.1264-48.8448C98.4576 123.1872 0 172.4416 0 258.7136z" fill="#C5221F" p-id="4525"></path></svg>