<?xml version="1.0" standalone="no"?><!DOCTYPE svg PUBLIC "-//W3C//DTD SVG 1.1//EN" "http://www.w3.org/Graphics/SVG/1.1/DTD/svg11.dtd"><svg class="icon" width="200px" height="200.00px" viewBox="0 0 1024 1024" version="1.1" xmlns="http://www.w3.org/2000/svg"><path fill="#d81e06" d="M542.336 558.656a16.32 16.32 0 0 1-16.576-15.488c-0.704-10.176 7.04-15.104 16.576-15.808 8.768-0.384 14.784 4.928 15.104 13.696 0 9.856-6.656 15.168-15.104 17.6z m-38.4 0c-8.448-1.024-15.488-5.952-16.192-14.784-0.704-9.856 6.336-15.488 15.872-16.512 9.472-1.024 15.808 4.608 16.192 14.08 0.32 9.856-6.016 15.488-15.872 17.216z m-23.552-11.264c-0.704 6.016-6.72 11.264-16.576 10.56-9.536-0.704-14.784-6.336-14.08-16.192 0.704-10.176 7.744-15.104 17.216-15.104 9.92 1.024 14.464 7.04 13.44 20.736z m97.856-5.248c0-38.72-33.088-73.216-70.784-72.832-43.264 0.64-73.216 31.616-74.24 72.128-0.704 38.4 34.496 72.896 72.896 72.896a72.96 72.96 0 0 0 72.128-72.192z m-31.68 139.392c-0.384-6.72 1.728-13.76 2.432-21.44 1.728-13.056-8.448-23.936-20.416-20.416-29.568 9.792-55.232 0.32-80.576-12.032-13.696-6.72-13.696-7.04-15.872 8.832-2.112 17.216-10.176 31.296-27.072 37.312-17.216 5.952-33.792 3.2-46.464-12.288a40 40 0 0 1-4.928-44.032c7.424-14.784 26.432-26.048 40.512-24.256 17.536 2.048 19.648-2.176 15.424-19.776-5.632-23.936-6.336-47.872 5.312-71.104 8.064-15.808 4.928-25.344-11.264-33.408-3.904-1.792-7.744-3.2-11.648-4.928-15.104-6.336-24.96-23.616-21.44-38.016 3.52-15.168 20.416-28.48 35.52-28.16a34.624 34.624 0 0 1 32.768 29.888c0.32 3.136 0 6.72 0.704 9.856 2.112 14.464 13.76 20.416 27.136 15.168 24.64-9.152 49.28-12.352 75.008-1.728 13.696 5.952 21.12 0.32 20.416-14.464-1.856-29.952 17.856-54.592 46.4-58.432 25.344-3.2 51.072 15.872 57.728 43.328 7.424 30.592-30.272 65.792-62.272 58.048-4.992-1.088-9.92-4.608-14.144 1.024-4.544 6.016-1.024 10.944 1.792 15.872 17.216 30.976 17.92 62.272 1.024 92.544-10.56 18.688-2.816 29.952 17.6 29.568a63.36 63.36 0 0 1 65.856 60.544v2.496a65.792 65.792 0 0 1-65.152 67.584c-35.52-0.384-64.384-29.952-64.384-67.584z m274.56 179.84h-49.984c-12.992-0.32-15.168-4.544-9.152-15.808 17.6-32.704 30.592-67.2 33.792-104.512a54.4 54.4 0 0 1 3.52-13.696c2.112-5.632-1.728-14.464 5.312-16.576 7.04-1.728 11.264 6.016 15.808 9.856l35.2 33.472a59.52 59.52 0 0 1 21.44 41.536c1.728 17.6 7.04 34.112 8.448 51.776 0.704 10.24-2.112 14.08-12.352 14.08h-52.032z m-618.496 0h-51.328c-8.448 0-14.08-2.432-12.672-12.288l9.856-59.136c3.52-22.848 21.824-34.496 35.904-49.984 8.448-9.152 17.92-16.576 27.456-24.96 2.816-2.432 6.016-5.632 9.856-3.904 4.544 1.728 4.544 5.632 4.928 9.536 3.2 45.376 16.192 87.616 38.016 127.424 5.952 10.176 1.408 13.696-8.832 13.696l-53.184-0.384z m310.848-97.536h153.088c9.536 0 15.168-1.792 18.688-12.672a502.784 502.784 0 0 0 21.44-134.784c3.904-92.928-12.992-182.656-46.464-269.248a978.56 978.56 0 0 0-137.28-242.88c-7.744-9.856-13.696-8.128-20.416 0.32-14.464 19.328-29.888 38.4-43.328 58.752-50.944 80.64-93.952 165.504-118.592 258.432-14.784 55.232-24.256 111.936-24.64 168.576-0.32 53.12 8.448 105.6 23.232 156.992 3.2 11.968 8.832 15.872 20.8 15.872l153.472 0.64z m260.096-172.8c-0.704 99.648-14.4 179.136-49.984 253.76-9.856 20.416-12.352 21.44-32 10.176a22.272 22.272 0 0 1-4.928-2.816c-27.456-22.144-59.136-23.936-92.544-22.848-64.768 1.408-129.536 0.704-194.304 0a66.432 66.432 0 0 0-42.56 12.352c-6.72 4.544-13.696 8.064-20.736 12.352-22.848 13.696-23.232 13.696-34.88-10.944a557.696 557.696 0 0 1-38.336-118.976c-15.232-71.808-13.824-143.616-4.352-215.744 6.016-46.144 18.304-91.2 33.152-135.168 25.664-76.736 61.184-148.224 103.808-217.216 32-51.776 67.392-101.44 105.92-148.544 9.856-11.584 15.168-8.448 22.912 1.088 49.984 61.248 94.72 126.336 133.056 195.328 42.624 76.352 76.736 156.288 95.744 241.472 12.288 53.888 21.824 107.712 20.032 145.728zM503.936 1024l-41.216-56.32c-16.576-27.84-26.368-58.048-32.704-89.408-3.136-15.104 1.088-20.032 17.28-20.032h131.648c16.192 0 19.008 3.52 15.872 20.416-8.448 48.96-28.16 92.544-61.248 129.536-4.608 4.864-8.128 10.56-12.352 15.808h-17.28z m0 0"  /></svg>