<?xml version="1.0" standalone="no"?><!DOCTYPE svg PUBLIC "-//W3C//DTD SVG 1.1//EN" "http://www.w3.org/Graphics/SVG/1.1/DTD/svg11.dtd"><svg class="icon" width="200px" height="200.00px" viewBox="0 0 1024 1024" version="1.1" xmlns="http://www.w3.org/2000/svg"><path d="M512 512m-373.76 0a373.76 373.76 0 1 0 747.52 0 373.76 373.76 0 1 0-747.52 0Z" fill="#FFFFFF" /><path d="M752.64 634.88c0 65.03936-52.72064 117.76-117.76 117.76H389.12c-65.03936 0-117.76-52.72064-117.76-117.76V389.12c0-65.03936 52.72064-117.76 117.76-117.76h245.76c65.03936 0 117.76 52.72064 117.76 117.76v245.76z" fill="#E20C35" /><path d="M569.60512 513.33632c0-15.44192-5.46304-28.62592-16.38912-39.54688-10.92096-10.92096-24.10496-16.384-39.54688-16.384s-28.62592 5.46304-39.54688 16.384-16.384 24.10496-16.384 39.54688 5.46304 28.62592 16.384 39.54688 24.10496 16.384 39.54688 16.384 28.62592-5.46304 39.54688-16.384c10.92608-10.92096 16.38912-24.10496 16.38912-39.54688z m30.15168 0c0 23.89504-8.37632 44.21632-25.13408 60.96384-16.75776 16.74752-37.07904 25.12896-60.96384 25.13408-23.8848 0.01024-44.20608-8.36608-60.96384-25.13408-16.75776-16.76288-25.13408-37.08416-25.13408-60.96384s8.37632-44.20096 25.13408-60.96384c16.75776-16.76288 37.07904-25.1392 60.96384-25.13408 23.8848 0.01024 44.20608 8.38656 60.96384 25.13408s25.13408 37.0688 25.13408 60.96384z m23.60832-89.58464c0 5.53984-1.96608 10.27584-5.89824 14.208-3.93216 3.93216-8.66816 5.89824-14.208 5.89824s-10.27584-1.96608-14.208-5.89824c-3.93216-3.93216-5.89824-8.66816-5.89824-14.208s1.96608-10.27584 5.89824-14.208c3.93216-3.93216 8.66816-5.89824 14.208-5.89824s10.27584 1.96608 14.208 5.89824c3.92704 3.93216 5.89824 8.66816 5.89824 14.208z m-109.70624-48.08192c-1.024 0-6.59456-0.03584-16.7168-0.10752s-17.80736-0.07168-23.05536 0c-5.24288 0.07168-12.27264 0.29184-21.08416 0.66048-8.81152 0.36864-16.3072 1.09568-22.5024 2.19136-6.19008 1.09568-11.39712 2.43712-15.62624 4.03968a56.5248 56.5248 0 0 0-19.22048 12.67712 56.97024 56.97024 0 0 0-12.67712 19.2256c-1.59744 4.224-2.944 9.43616-4.03456 15.62624-1.09568 6.19008-1.82272 13.69088-2.19136 22.5024a834.6624 834.6624 0 0 0-0.66048 21.08416 1124.44416 1124.44416 0 0 0 0 23.05536c0.07168 10.12224 0.11264 15.69792 0.11264 16.7168s-0.03584 6.58944-0.11264 16.7168a1124.56704 1124.56704 0 0 0 0 23.05536c0.07168 5.248 0.29184 12.27264 0.66048 21.08416 0.36864 8.81152 1.09568 16.31232 2.19136 22.5024 1.09056 6.19008 2.43712 11.40224 4.03456 15.62624a56.54528 56.54528 0 0 0 12.67712 19.2256 57.02656 57.02656 0 0 0 19.22048 12.67712c4.22912 1.60256 9.43616 2.944 15.62624 4.03968 6.1952 1.09568 13.696 1.82272 22.5024 2.19136 8.81152 0.36864 15.84128 0.5888 21.08416 0.66048 5.248 0.07168 12.928 0.07168 23.05536 0 10.12224-0.07168 15.69792-0.11264 16.7168-0.11264s6.58944 0.03584 16.7168 0.11264c10.12224 0.07168 17.80736 0.07168 23.05536 0 5.24288-0.07168 12.27264-0.29184 21.08416-0.66048 8.81152-0.36864 16.31232-1.09568 22.5024-2.19136 6.19008-1.09056 11.39712-2.43712 15.62624-4.03968a56.5248 56.5248 0 0 0 19.22048-12.67712 56.97024 56.97024 0 0 0 12.67712-19.2256c1.59744-4.224 2.944-9.43616 4.03968-15.62624 1.09056-6.19008 1.82272-13.69088 2.19136-22.5024 0.36864-8.81152 0.5888-15.83616 0.66048-21.08416 0.0768-5.24288 0.0768-12.928 0-23.05536-0.07168-10.12224-0.10752-15.69792-0.10752-16.7168s0.03584-6.58944 0.10752-16.7168c0.0768-10.12224 0.0768-17.80736 0-23.05536a788.50048 788.50048 0 0 0-0.66048-21.08416c-0.36864-8.81152-1.09568-16.31232-2.19136-22.5024-1.09568-6.19008-2.44224-11.40224-4.03968-15.62624a56.59136 56.59136 0 0 0-12.67712-19.2256 57.02656 57.02656 0 0 0-19.22048-12.67712c-4.22912-1.60256-9.43616-2.944-15.62624-4.03968-6.19008-1.09056-13.696-1.82272-22.5024-2.19136a788.50048 788.50048 0 0 0-21.08416-0.66048 1204.82304 1204.82304 0 0 0-23.05536 0c-10.12224 0.07168-15.6928 0.10752-16.7168 0.10752z m167.82848 137.66656c0 33.3568-0.36352 56.448-1.09056 69.2736-1.4592 30.30016-10.49088 53.75488-27.09504 70.35904-16.59904 16.60928-40.05376 25.64096-70.35904 27.09504-12.81536 0.72704-35.90656 1.09056-69.2736 1.09056s-56.45824-0.36352-69.2736-1.09056c-30.30016-1.4592-53.75488-10.49088-70.35904-27.09504-16.60928-16.59904-25.64096-40.05376-27.09504-70.35904-0.72704-12.81536-1.09056-35.90656-1.09056-69.2736s0.36352-56.45824 1.09056-69.2736c1.4592-30.30016 10.49088-53.74976 27.09504-70.35904 16.59904-16.60928 40.05376-25.64096 70.35904-27.09504 12.81536-0.72704 35.90656-1.09056 69.2736-1.09056s56.45824 0.36352 69.2736 1.09056c30.30016 1.4592 53.75488 10.49088 70.35904 27.09504 16.60928 16.59904 25.64096 40.05376 27.09504 70.35904 0.72704 12.81536 1.09056 35.90656 1.09056 69.2736z" fill="#FFFFFF" /></svg>