<?xml version="1.0" standalone="no"?><!DOCTYPE svg PUBLIC "-//W3C//DTD SVG 1.1//EN" "http://www.w3.org/Graphics/SVG/1.1/DTD/svg11.dtd"><svg class="icon" width="200px" height="200.00px" viewBox="0 0 1024 1024" version="1.1" xmlns="http://www.w3.org/2000/svg"><path d="M89.088 59.392l62.464 803.84c1.024 12.288 9.216 22.528 20.48 25.6L502.784 993.28c6.144 2.048 12.288 2.048 18.432 0l330.752-104.448c11.264-4.096 19.456-14.336 20.48-25.6l62.464-803.84c1.024-17.408-12.288-31.744-29.696-31.744H118.784c-17.408 0-31.744 14.336-29.696 31.744z" fill="#D3B900" /><path d="M512 120h350l-62 720-288 80" fill="#FFDA00" /><path d="M400 190h70v614l-240-80v-70l170 50zM830 190H550v380l180-30-20 160-160 30v70l220-46 28-280-190 24V258h214z" fill="#FFFFFF" /></svg>