<?xml version="1.0" standalone="no"?><!DOCTYPE svg PUBLIC "-//W3C//DTD SVG 1.1//EN" "http://www.w3.org/Graphics/SVG/1.1/DTD/svg11.dtd"><svg class="icon" width="200px" height="200.00px" viewBox="0 0 1024 1024" version="1.1" xmlns="http://www.w3.org/2000/svg"><path d="M512 512m-512 0a512 512 0 1 0 1024 0 512 512 0 1 0-1024 0Z" fill="#F2F2F2" /><path d="M667.8 288.6c-19.8 14-38.8 25.8-59.8 42.8-16 13-44.8 31-46.2 54.8-2.4 36.4 53.8 70.4 24.2 116.6-11.2 17.6-30.6 25.2-54.8 36-3-5.4 6.4-9.8 10.2-15.2 37.4-54-38.8-72-29.2-138.8 9-64.6 84.8-87.4 155.6-96.2z" fill="#DB3B29" /><path d="M429.4 511.4c-17.6 8.2-47.2 9.8-59.8 27.6 13 9.8 32 9.6 49.6 10.2 72.4 3.4 162.8-3 224.4-13.6 2 4.4-8.4 12.2-15.2 17-38.8 28.6-159.8 36.4-243.4 31-27.8-2-91.8-9.2-92.4-34.4-1-30.2 77.6-33.6 109.8-36 6-0.8 17.8-3.2 27-1.8z m-36 77c8.2 1-5.8 5.8-3.4 12 29.6 29.2 121 21 166.2 11.8 9.6-2 18.8-7.4 25.8-6.8 17 1.8 28.2 21.4 42.8 24.2-52 23.4-152.6 34.6-226 20.4-19-3.8-52-14-53-29.2-1.8-20.8 32.6-29.6 47.6-32.4z m22.4 70.2c5.4 1.8-2 4.8-1.8 6.8 15.6 27.2 92.8 17.4 132 8.4 7.8-2 15.6-7.4 22.4-6.8 19.8 1.4 27.6 22 44.6 25.8-54.8 33.4-187 47-241.8 5-2.6-30.4 21.8-33.8 44.6-39.2z" fill="#055FA9" /><path d="M366.2 709.8c-16.4 4-58.4-1.8-59.8 20.4-0.6 8.4 14.2 18.8 24.2 22.4 55.8 21 168 24.4 260.4 13.6 42.8-5 123.4-19.4 113.2-63.2 13 1.8 24.4 9.8 25.8 22.4 5.2 47.2-103.4 67.4-147.2 72-95.6 10.6-214.6 8.4-288-17-23.8-8.2-52.8-23.4-51.4-46.2 1.4-38.6 93.8-49.2 122.8-24.4z" fill="#055FA9" /><path d="M511.6 852c-64.2-7.2-126.2-16.4-178.2-39.4 136.4 32.6 334.8 30.2 430-39.4 5-3.8 9.8-11.2 17-10.2-24.2 72-116.2 76.8-195.2 89h-73.6z" fill="#055FA9" /><path d="M556.2 172c12 11.2 20.4 32.2 20.4 54.8 0 66.4-70.4 104.8-104.4 149-7.4 9.8-17.4 25.2-17 41.2 0.4 36 37.8 76.4 51.4 106-24.2-15.6-53-36.8-73.8-61.6-20.4-24.8-41.2-64.6-22.4-99.2 28.2-52 112.6-83 142.2-138.8 7.4-13.4 13.2-34 3.6-51.4z" fill="#DB3B29" /><path d="M657.2 528.4c35.4-30.2 95.2-18.4 97.6 32.6 3 59.4-62.2 93.2-109.8 95.8 22-21 79.8-54.4 68.6-102.6-4.4-19.8-28.8-31.4-56.4-25.8z" fill="#055FA9" /></svg>