<?xml version="1.0" standalone="no"?><!DOCTYPE svg PUBLIC "-//W3C//DTD SVG 1.1//EN" "http://www.w3.org/Graphics/SVG/1.1/DTD/svg11.dtd"><svg class="icon" width="200px" height="200.00px" viewBox="0 0 1024 1024" version="1.1" xmlns="http://www.w3.org/2000/svg"><path d="M871.137244 493.438571c0 202.885706-160.789964 367.351862-359.13056 367.351863S152.876124 696.324278 152.876124 493.438571 313.666088 126.100077 512.006684 126.100077s359.13056 164.426052 359.13056 367.351862" fill="#D33833" /><path d="M167.514053 584.420987S141.56682 201.34839 494.481273 190.400021l-24.623804-41.039673-191.536298 64.299944-54.715108 62.93641-47.884075 91.664182-27.364238 106.716518 8.207935 71.144346" fill="#EF3D3A" /><path d="M266.036005 242.855942c-62.976515 64.46036-102.010992 153.477683-102.010992 251.95953A359.237503 359.237503 0 0 0 266.036005 746.761635c63.043355 64.46036 149.921803 104.270179 245.970679 104.270179s182.927325-39.769716 245.970679-104.270179a362.151721 362.151721 0 0 0 0-503.972533c-63.043355-64.446992-149.921803-104.270179-245.970679-104.270179s-182.927325 39.783084-245.970679 104.270179zM250.088015 762.34869a384.43613 384.43613 0 0 1 0-535.079803c66.96017-68.510855 159.62695-110.954165 261.918669-110.954165s195.025339 42.44331 261.865198 110.954165a384.422762 384.422762 0 0 1 0 535.079803c-66.933434 68.510855-159.613582 110.954165-261.91867 110.954165s-194.958499-42.44331-261.905301-110.954165" fill="#231F20" /><path d="M663.185076 495.483871l-54.728476 8.207935-73.871412 8.207934-47.884074 1.336797-46.507174-1.336797-35.572173-10.948369-31.468205-34.195271-24.637172-69.713973-5.480868-15.052336-32.831739-10.935001-19.156303-31.494941-13.675435-45.157008 15.038968-39.67614 35.585541-12.311902 28.794611 13.648699 13.675435 30.091304 16.349029-2.740434 5.480868-6.831034-5.480868-31.468205-1.336797-39.67614 8.207934-54.728476-0.320831-31.254318 24.917899-39.876659 43.780108-31.44147 76.611846-32.831738 84.833148 12.311902 73.871412 53.364943 34.208639 54.728476 21.896738 39.662772 5.4675 98.508583-16.415869 84.793045-30.158144 75.248312-28.727771 39.67614" fill="#F0D6B7" /><path d="M616.664534 732.16381l-195.640265 8.207934v32.845107l16.415869 114.964557-8.207935 9.584835-136.82119-46.520541-9.571468-16.415869-13.675435-154.654065-31.468205-93.027715-6.844402-21.896738 109.456953-75.234944 34.195271-13.688803 30.104672 36.935705 25.987337 23.260271 30.104673 9.584836 13.728907 4.103967 16.415869 71.144345 12.32527 15.038969 31.414733-10.935001-21.883369 42.403206 118.974948 56.145481-15.052337 8.207935" fill="#335061" /><path d="M292.411013 254.686597l35.585541-12.311902 28.794611 13.688803 13.675435 30.091304 16.349029-2.740434 4.103967-16.415869-8.207934-31.454838 8.207934-75.26168-6.844401-41.039673 24.637172-28.727772 53.351575-42.37647-15.052336-20.55994-75.248313 36.935705-31.454837 24.637172-17.792771 38.299239-27.364238 36.989178-8.207935 43.780107 5.467501 46.520542" fill="#6D6B6D" /><path d="M348.503022 126.086709s20.533205-50.624509 102.612551-75.275049 4.103967-17.79277 4.103967-17.79277L366.295792 67.254266 332.087153 101.462905l-15.052336 27.364238 31.468205-2.673594m-41.039673 118.974948s-28.727771-95.768149 80.715813-109.456952l-4.103967-16.415869-75.248313 17.779402-21.88337 71.130977 5.467501 46.520542 15.052336-9.571468" fill="#DCD9D8" /><path d="M351.243456 372.351484l17.913082-17.378364s8.087623 0.949126 9.451156 10.520594 5.4675 95.768149 64.299944 142.288691c5.347189 4.251015-43.780107-6.844402-43.780107-6.844402l-43.780107-68.403911m247.641675-86.196681s3.194945-41.440712 14.357202-38.272503 11.175624 14.357202 11.175624 14.357201-27.123615 17.538779-25.532826 23.915302M716.536651 194.477252s-22.551768 4.718894-24.623804 24.637172 24.623804 4.103967 28.727771 2.673594m-169.652929-25.920497s-30.091304 4.103967-30.091304 23.246903 34.195272 17.79277 43.780107 9.584836m-199.744233 56.051905s-52.00141-31.468205-57.482278-1.336797-17.79277 51.988042 8.207935 83.469615l-17.792771-5.480868-16.415869-42.416574-5.4675-41.039673 31.468205-32.831739 35.572173 2.673594 20.519836 16.429238 1.336797 20.519836m24.623804-86.196681S412.802966 78.202634 530.467853 54.942364c96.877691-19.142935 147.756191 4.103967 166.912495 25.987337 0 0-86.183314-102.599183-168.276028-71.130978s-142.288691 88.923748-140.925158 125.859454c2.326027 62.909675 1.336797 62.936411 1.336797 62.936411m317.516064-103.976084s-39.67614-1.336797-41.053041 34.208639a27.190454 27.190454 0 0 0 2.740434 10.935001s31.481573-35.572173 50.624509-16.415869" fill="#F7E4CD" /><path d="M533.248391 143.465072s-6.831034-54.594796-53.378311-22.845863c-30.091304 20.519837-27.364238 49.247608-21.88337 54.715108s4.010392 16.496077 8.154463 8.929805 2.780538-32.190076 17.846242-39.02111 39.689508-14.490881 49.260976-1.77794" fill="#F7E4CD" /><path d="M404.595031 513.263273l-128.599887 57.482279s53.351575 212.042767 25.987337 277.719612l-19.142936-6.844402-1.336797-80.715813-35.598909-153.23706-15.052336-42.416574 134.080756-90.287281 39.662772 38.299239m13.234292 117.290584l18.233914 22.257673v82.092714h-21.88337s-2.740434-57.482278-2.740434-64.299944 2.740434-31.468205 2.740434-31.468205m4.103967 108.146891l-61.492669 2.673594 17.779402 12.311902 43.713267 6.844402" fill="#49728B" /><path d="M628.976436 733.540711l50.624509-1.336797 12.311902 125.872821-51.988042 6.844402-10.948369-131.326954" fill="#335061" /><path d="M642.665239 733.540711l76.611846-4.103967s31.468205-79.35228 31.468206-83.456248 27.364238-114.964557 27.364238-114.964556L716.536651 466.715996l-12.311902-10.854793-32.831738 32.831738v127.182883l-28.727772 117.638151" fill="#335061" /><path d="M676.860511 723.955875l-47.884075 9.584836 6.844402 38.312607c17.779402 8.207935 47.884075-13.688803 47.884074-13.688803m-5.480868-273.629013l95.781517 71.144346 2.673595-32.831739-72.454407-66.986906-26.000705 28.727771" fill="#49728B" /><path d="M465.76687 1003.079124l-28.326732-114.964556-14.089842-84.806413-2.326027-62.949778 128.198848-6.831034h79.753319l-7.24544 143.67896 12.311902 110.807117-1.336798 20.533205-103.962715 8.207934-62.936411-13.675435" fill="#FFFFFF" /><path d="M611.197034 732.16381s-6.844402 142.288691 13.675435 243.537708c0 0-41.053041 25.987337-101.249018 32.831739l114.964557-4.103968 13.635331-8.207934-16.402501-224.368037-4.103967-47.897443" fill="#DCD9D8" /><path d="M694.238874 847.101631l53.364943-15.052337 101.23565-5.4675 15.052336-46.520542-27.364238-80.715813-31.468205-4.103967-43.780108 13.675435-42.002167 20.519837-22.297777-4.0906-17.378363 6.817666" fill="#FFFFFF" /><path d="M693.27638 819.724024s35.572173-16.415869 41.053041-15.038968l-15.052336-75.248312 17.779403-6.844402s12.311902 71.144345 12.311901 79.35228c0 0 76.611846 4.103967 83.456248 4.103967 0 0 16.415869-31.468205 12.311902-64.299943l15.052336 43.780107 1.336797 24.623804-21.896738 32.831738-24.623804 5.480869-41.053041-1.336798-13.675435-17.779402-47.897442 6.79093-15.052336 5.480868" fill="#DCD9D8" /><path d="M639.510398 722.60571l-30.064568-76.611846-31.468206-45.14364s6.831034-19.156303 16.41587-19.156304h31.468205l30.091304 10.948369-2.673594 50.611141-13.688803 79.35228" fill="#FFFFFF" /><path d="M645.392306 696.591637s-38.299239-73.871412-38.299239-84.81978c0 0 6.831034-16.415869 16.415869-12.311902s30.0512 15.052336 30.0512 15.052336v-26.000705l-46.507173-9.571468-31.468206 4.103968 53.351575 125.859453 10.948369 1.336797" fill="#DCD9D8" /><path d="M478.078772 516.017075l-37.8982-4.117335-35.585541-10.948369v12.311902l17.378364 19.169672 54.728476 24.623804" fill="#FFFFFF" /><path d="M416.947037 520.121043s42.416574 17.79277 56.145481 13.675435l1.336798 16.402501-38.299239-8.181199-23.260271-16.429237 4.103967-5.4675" fill="#DCD9D8" /><path d="M694.091826 586.345975c-23.206799-0.681767-44.181146-3.435569-62.548739-8.622342 1.243221-7.526168-1.096174-14.918656 0.78871-20.332685 5.119933-3.68956 13.702171-3.636088 21.388755-4.491639a37.203065 37.203065 0 0 0-23.808358-2.673594c-0.187152-5.226877-2.526547-8.461926-3.943551-12.552525 13.04714-4.652054 43.860315-35.197869 61.198574-25.078315 8.261407 4.81247 11.763815 32.283652 12.405478 45.638255 0.534719 11.082049-1.002598 22.271041-5.520972 28.139581" fill="#D33833" /><path d="M583.08419 548.394303c0 1.751204-0.13368 3.529145-0.213888 5.347189-7.245441 4.718894-18.875576 4.652054-26.896359 8.662445a69.767444 69.767444 0 0 1 28.941659 7.312281l-0.521351 13.274396c-13.274396 9.090221-25.399146 22.645344-41.053041 31.17411-7.405856 4.010392-33.419929 14.410673-41.226825 12.579261-4.451535-1.042702-4.852574-6.563674-6.683986-11.777183-3.796504-11.148888-12.525789-28.888187-13.287764-45.691727-0.975862-21.201603-3.114737-56.720304 19.731126-52.362345 18.434433 3.515777 39.87666 12.031175 54.153654 19.811334 8.729286 4.758998 13.769011 10.694377 27.003303 11.670239" fill="#D33833" /><path d="M596.278378 573.699873c-2.031932-11.549928-4.371327-14.851817-3.462305-24.931267 30.746335-20.533205 36.588139 35.278077 3.462305 24.931267" fill="#D33833" /><path d="M640.873931 583.057454s-9.571468-13.688803-2.673594-17.792771 13.688803 0 17.79277-6.831033 0-10.948369 1.336797-19.156304 8.221303-9.584836 15.052336-10.948369 26.000705-4.103967 28.727772 2.740435l-8.207935-24.623804-16.415869-5.480869-51.988042 30.104673-2.740434 15.052336v30.0512m-124.509289 51.988042q-2.473075-32.083132-5.347188-64.005848c-2.887482-31.842509 7.659848-26.2948 35.264709-26.294801 4.224279 0 25.960601 5.039725 27.524654 8.221303 7.459328 15.239488-12.485686 11.844023 8.595605 23.340478 17.779402 9.705147 49.220872-5.881908 42.028903-27.444445-4.010392-4.799102-20.96098-1.497213-27.030038-4.638687l-32.083132-16.629756c-13.608595-7.058289-45.036697-17.378363-59.540946-7.472697-36.721818 24.984739 2.326027 87.399799 15.426639 113.467344" fill="#EF3D3A" /><path d="M533.248391 143.465072c-37.283273-8.675814-55.811282 15.613791-67.107218 40.79905-10.106187-2.446339-6.082427-16.161878-3.529144-23.166695 6.683986-18.354225 33.566977-42.777509 55.543922-39.462253 9.464524 1.417005 22.257673 10.066083 15.09244 21.829898m181.670735 42.470046h1.764573c8.43519 17.512043 15.720735 36.093524 26.348272 51.506795-7.111761 16.589653-53.926398 31.267686-53.204527 1.483845 10.119555-4.424799 27.591494-0.909022 36.57477-6.563674-5.186773-14.23689-12.672837-26.348272-11.483088-46.493806m-162.594639 0.454512c8.020783 14.704769 10.600802 30.0512 21.963577 41.133248 5.119933 4.986253 15.065704 11.068681 10.132923 24.931268-1.149646 3.275153-9.584836 10.574066-14.450778 12.031174-17.766034 5.240245-59.166643 1.082806-45.14364-21.067923 14.704769 0.681767 34.435895 9.531364 45.451104-1.12291-8.421822-13.488283-23.46079-40.103915-17.92645-55.878122M708.248509 335.362306c-26.735943 17.177844-56.586624 35.866268-100.420204 31.535045-9.35758-8.141095-12.940197-26.268064-3.836608-38.232399 4.732262 8.141095 1.764572 23.113223 14.958761 25.399146 24.877795 4.251015 53.819454-15.212752 71.719168-22.030417 11.082049-18.71516-0.962494-25.57293-10.948369-37.617472-20.466365-24.663908-47.910811-55.236459-46.921581-92.158797 8.274774-5.988851 8.983277 9.157061 10.173027 11.910863 10.694377 24.998107 37.577368 56.987663 57.201551 78.389786 4.81247 5.266981 12.753045 10.320074 13.635331 13.809114 2.539915 10.132923-6.683986 22.271041-5.561076 29.021867m-352.687198-18.12697c-8.381718-4.785734-10.386914-25.867025-20.225741-26.468584-14.063106-0.85555-11.496456 27.35087-11.442984 43.846948-9.678412-8.796125-11.389512-35.866268-4.277751-49.768959-8.114359-4.010392-11.723711 4.398063-16.215349 7.352384 5.774964-41.988799 61.412462-19.477135 52.135089 25.038211m369.717994 35.585541c-12.445582 23.701414-30.064568 49.795695-66.612603 50.557669-0.735238-7.64648-1.336797-19.303351 0-23.915301 27.939061-2.673594 45.183744-16.897116 66.572499-26.642368m-175.12043 15.359799c23.300375 12.25843 66.144724 13.568491 97.813449 12.646102 1.697732 6.937977 1.670996 15.520215 1.724469 23.982141-40.718842 2.031932-88.856908-8.020783-99.537918-36.628243m-4.424798 22.859232c16.108406 40.46485 71.505281 35.799428 118.212973 34.756726-2.0453 5.253613-6.510202 11.456352-12.031174 13.702171-14.972128 6.095795-56.265793 10.694377-77.039621-0.334199-13.18082-7.004817-21.642746-22.832496-28.874819-32.083132-3.475673-4.478271-20.840668-15.934622-0.253991-15.961358" fill="#231F20" /><path d="M706.296785 614.271667c-18.902312 32.390595-37.002546 65.663477-59.420635 94.244201 9.35758-27.658333 13.367972-73.951619 14.851817-109.243065 19.691022-9.210532 36.534667 2.072036 44.595554 15.012232" fill="#81B0C4" /><path d="M808.080521 730.693333c-21.188235 4.237647-36.093524 24.824323-56.720304 23.500894 11.349408-16.041566 31.254318-22.725552 56.720304-23.500894m9.35758 33.139202c-17.258051 1.831412-37.523897 4.61195-55.035939 3.181577 8.288142-12.659469 40.224227-8.30151 55.035939-3.181577m5.988852 28.567355c-19.396927 0.427775-43.512748 0-61.947181-1.51058 10.908265-11.710343 49.367919-4.344591 61.947181 1.51058" fill="#231F20" /><path d="M669.802222 870.589157c2.780538 24.356444 12.432214 49.047088 11.229096 75.716191-10.694377 3.62272-16.883748 6.777562-31.254318 6.764194-1.015966-22.725552-4.010392-57.335231-3.141473-78.951241 7.071657 0.467879 17.498675-5.039725 23.166695-3.529144" fill="#DCD9D8" /><path d="M638.534536 511.565541c-9.745251 6.363155-18.033394 14.30373-27.390974 21.081291-20.747092 1.029334-32.083132-1.430373-47.295884-13.367971 0.240623-0.949126 1.77794-0.521351 1.831412-1.697733 22.204201 9.892299 50.437357-4.010392 72.855446-6.042323" fill="#F0D6B7" /><path d="M521.965823 662.931084c6.109163-26.441848 30.011096-40.103915 51.707314-54.688372 22.418089 28.433676 36.093524 65.008446 51.052284 100.259788-35.465229-10.694377-71.692432-28.072741-102.759598-45.598151" fill="#81B0C4" /><path d="M646.635527 874.118301c-0.895654 21.61601 2.125507 56.279161 3.141473 78.951241 14.37057 0 20.533205-3.141473 31.254318-6.764194 1.216485-26.735943-8.448558-51.359747-11.229096-75.716191-5.66802-1.510581-16.095038 3.997024-23.166695 3.529144z m-223.739742-122.985339c9.477892 87.105704 23.193431 160.335453 48.365321 237.468649 55.864754 16.963956 123.212595 18.434433 172.593883 3.128105-9.063485-43.526116-5.106565-96.530124-10.400282-143.037297-4.010392-34.917142-1.951724-70.048172-7.432592-105.673816-59.835041-12.445582-144.374094-2.914218-203.12633 8.020783z m217.29638-7.459328c-0.507983 37.430321 1.670996 74.312555 4.531742 111.769611 14.37057-2.152243 24.062349-3.595984 37.430321-6.52357-4.331223-36.093524-3.796504-76.638582-12.632734-108.534563-10.199762 0.093576-19.183039-0.120312-29.409537 3.288522z m72.882181-6.028956c-6.831034-1.564053-14.704769 0-21.281811 0.06684 3.074633 30.492343 10.493858 64.166264 13.113981 96.155821 10.253234 0.320831 15.720735-4.518374 24.155924-6.135899 0.414407-28.099477-2.486443-66.813123-16.01483-90.086762z m110.259031 100.807875c21.388755-5.173405 34.756726-31.347894 28.821347-58.217517-4.010392-18.06013-11.148888-52.06825-18.795368-63.618177-5.654652-8.542134-20.96098-19.731126-33.192674-11.910863-19.891542 12.739677-54.928996 16.442605-69.433245 31.855877 7.272177 24.209397 9.531364 57.482278 12.539157 88.161773 24.837691 1.550685 55.410243-6.831034 76.077127 2.072036-14.424041 4.665422-33.15257 4.705526-45.611519 11.509823 10.186394 4.919414 34.034856 3.930184 49.595175 0.147048z m-198.607956-129.936685c-15.012232-35.278077-28.647563-71.852848-51.052284-100.259788-21.696218 14.557721-45.611519 28.246524-51.707314 54.688372 31.067166 17.565515 67.29437 34.877038 102.759598 45.571416z m36.97581-109.269801c-1.457109 35.304813-5.4675 81.598099-14.825081 109.269801 22.444824-28.567356 40.545058-61.840237 59.447371-94.230833-8.020783-12.940197-24.904531-24.222765-44.595554-15.012232z m-41.921959-14.905288c-8.50203-0.909022-15.720735 9.771987-26.735944 5.160037-2.526547 2.793906-4.825838 5.828436-7.405856 8.56887 24.409916 29.409538 35.505333 71.157713 54.354173 105.740656 10.119555-33.21941 8.956541-69.607029 11.188992-105.860968-13.902691 0.882286-21.61601-12.565893-31.361261-13.608595z m-26.963199-35.572173c-0.909022 10.079451 1.430373 13.367972 3.462305 24.931267 33.125834 10.34681 27.337502-45.451104-3.462305-24.917899z m-36.735186-12.031174c-14.263626-7.793527-35.705852-16.295557-54.140286-19.811334-22.859232-4.371327-20.706988 31.17411-19.744494 52.375713 0.761974 16.790172 9.49126 34.542839 13.287764 45.691727 1.77794 5.200141 2.178979 10.694377 6.683986 11.763815 7.873735 1.831412 33.820968-8.542134 41.226825-12.579261 15.640527-8.528766 27.778645-22.070521 41.066409-31.17411 0.173784-4.424799 0.334199-8.849597 0.52135-13.274396a70.088276 70.088276 0 0 0-29.008498-7.339017c7.953943-4.010392 19.664286-3.943552 26.909727-8.702549 0.06684-1.77794 0.147048-3.542512 0.20052-5.347189-13.234292-1.015966-18.274017-6.911241-27.003303-11.683607zM419.767679 512.006684c-11.844023 12.031175 33.21941 28.40694 47.576612 29.302594-0.080208-7.619744 4.331223-14.784977 3.448936-20.252477-17.057532-2.994426-39.448884-1.015966-51.025548-9.050117z m145.911411 5.641284c0 1.176382-1.577421 0.748606-1.831412 1.7111 15.239488 11.910863 26.56216 14.37057 47.295884 13.367972 9.35758-6.79093 17.659091-14.704769 27.390974-21.081291-22.418089 1.991828-50.651245 15.921254-72.855446 6.028955z m133.933709 40.611898c-0.628295-13.367972-4.144071-40.825786-12.405478-45.638255-17.378363-10.119555-48.124698 20.426261-61.185206 25.091683 1.417005 4.077231 3.7564 7.325648 3.930183 12.552525a37.336745 37.336745 0 0 1 23.821726 2.673594c-7.740056 0.868918-16.322293 0.802078-21.388755 4.491639-1.871516 5.414029 0.467879 12.806517-0.78871 20.332685 18.367593 5.186773 39.341941 7.940575 62.562107 8.622342 4.505006-5.86854 6.042323-17.057532 5.507605-28.139581z m-299.790133-34.623047c-3.716296-2.673594-28.874819-35.398389-32.323756-34.034856-45.464472 17.899714-88.108301 48.953512-126.153549 78.322947 36.267307 77.828331 50.918604 173.195441 53.471887 265.100246 41.561024 19.437031 78.055587 47.4563 134.441691 50.383886-6.52357-46.172974-12.485686-87.359695-16.188614-130.818971-14.17005-5.975483-34.489367 0.267359-47.750394-1.858148-0.106944-16.041566 20.252477-7.004817 21.950209-17.739299 1.336797-8.127727-11.215728-8.742653-7.138497-21.535802 10.360178 3.769768 15.800943 12.031175 26.856255 15.212752 10.106187-22.097257-0.13368-61.198574 1.336798-79.673112 0.280727-3.462305 1.737836-19.209775 9.504627-16.442605 6.871137 2.432971-0.387671 41.868487 0.360936 59.353794 0.681767 16.041566-1.951724 31.682093 4.571846 41.801648a1552.997376 1552.997376 0 0 1 168.810747-13.835851c-12.966933-5.561076-28.366836-10.828057-45.263953-20.346053-9.157061-5.160037-38.031879-15.907886-40.678738-24.610436-4.210911-13.862587 11.068681-21.241707 13.675436-33.125834-27.497918 15.012232-32.845106-14.37057-39.368677-35.184501-5.895276-18.84884-9.250636-32.938682-10.694377-43.806843-23.701414-11.295936-49.03372-22.725552-69.419877-37.216434z m275.727784-30.077936c37.938304-18.394329 44.782705 68.751478 29.904152 96.824219 2.299291 8.381718 10.21313 11.576663 13.434812 19.1162-21.174867 37.924936-44.689129 73.323325-66.291772 110.793749 16.041566-9.999243 39.021109-1.77794 57.93679-9.264004 6.911241-2.740434 11.910863-18.554745 17.151107-31.214214 14.383938-34.836934 29.503114-78.737353 36.227204-111.970131 1.510581-7.566272 5.654652-24.062349 4.732262-30.813175-1.657628-12.031175-18.033394-21.014452-26.361641-28.47378-15.346432-13.782379-24.998107-25.907129-41.012937-38.767118-6.483466 9.571468-20.412893 16.041566-25.719977 23.79499z m-362.485921-336.471848c-18.086866 19.878174-14.30373 57.148079-12.111382 83.670135 32.684691-20.55994 76.037023 1.617525 75.635984 36.588139 15.600423-0.427775 5.828436-19.490503 3.007793-31.775669-9.2239-40.103915 15.533583-83.723607 1.12291-120.405321-27.939061 2.11214-50.985444 13.541755-67.655305 31.922716z m129.281654-115.445803c-40.919361 11.603399-93.361914 41.333768-110.178822 78.09569 13.020404-1.884884 22.057153-8.461926 34.903774-9.264004 4.852574-0.320831 11.215728 2.031932 16.790172 0.641663 11.122152-2.753802 20.506469-27.685069 28.888187-36.962442 8.181199-9.063485 18.006658-12.926829 24.744116-21.188235 4.317855-2.085404 10.694377-1.938356 10.948369-8.43519-1.871516-1.991828-3.849976-3.529145-6.095796-2.887482z m213.085469 10.908265C612.961606 28.594091 541.055286 10.560698 495.88491 33.08573c-36.467827 18.180442-85.74217 48.258378-102.545711 86.370465 15.693999 36.77529-4.652054 70.475947-5.948747 107.82606-0.695135 19.864806 9.35758 37.203065 10.119554 58.819075-5.347189 8.862965-21.776426 9.959139-33.139201 9.35758-3.82324-19.129567-10.507226-40.638634-30.224984-42.777509-27.872221-3.047898-48.258378 20.051958-49.461496 44.114307-1.497213 28.353468 21.776426 75.355256 54.808684 72.093471 12.739677-1.256589 15.867782-14.03637 29.757105-13.902691 7.526168 15.012232-11.616767 19.731126-13.581859 30.465608-0.507983 2.780538 1.590789 13.621963 2.807274 18.71516 5.988851 24.757484 19.356823 56.800512 32.497539 75.649352 16.696597 23.915301 49.461495 27.524654 84.766309 29.864049 6.296315-13.568491 29.516482-12.45895 44.635657-8.903069-18.12697-7.178601-34.983982-24.5837-48.940144-39.983604-16.041566-17.672459-32.283652-36.628242-33.112466-59.728097 30.31856 42.055639 55.356771 78.777457 110.486286 97.27873 41.708072 13.982898 90.420961-6.416626 122.450621-28.914923 13.301132-9.35758 21.241707-24.196029 30.746335-37.777888 35.358285-50.8785 51.86773-123.493323 48.24501-193.83559-1.497213-29.035235-1.430373-57.950157-11.162257-77.534235-10.186394-20.426261-44.608922-38.68691-64.767823-20.225742-3.876712-19.824702 16.669861-32.109868 40.73221-24.958003-17.20458-22.164097-35.224605-48.779729-59.621154-62.548739z m79.138393 654.923669c33.192674-16.496077 95.206694-44.408402 116.020626 0 7.686584 16.389133 16.683229 44.114307 20.666884 61.024791 5.614548 23.875197-6.095795 74.058563-30.639391 82.079346-21.669482 7.071657-46.961685 6.683986-73.069333 1.336797a39.649404 39.649404 0 0 1-8.889701-11.656871c-18.634953-0.72187-36.093524 1.002598-50.798293 8.662446 1.336797 13.782379-7.927207 16.041566-16.66986 18.835472-6.483466 25.70661 12.966933 59.273587 8.314878 82.694273-3.328625 16.696597-23.861829 19.276615-38.95427 22.40472-0.494615 9.277372 0.655031 17.017428 1.684365 24.864428-3.448937 12.726309-18.929048 19.958382-33.607081 21.736322-48.258378 5.788332-121.541599 8.408454-167.955196-8.288143-12.953565-31.775669-23.166695-70.435843-33.954648-106.716518-45.27732 4.839206-81.905563-19.530607-116.421666-35.491965-11.950967-5.547708-28.487148-8.595606-32.95205-18.113601-4.331223-9.210532-2.553283-26.869623-3.636088-43.552852-2.673594-42.57699-5.066461-83.670135-16.308926-127.276459-5.053093-19.570711-13.862587-36.84213-20.051958-55.69097-5.654652-17.405099-15.573687-38.95427-18.153705-56.386104-3.836608-25.826921 20.479733-27.257294 36.093524-38.459655 24.062349-17.298155 42.911189-26.869623 68.951998-42.496782 7.71332-4.625318 30.960222-16.335661 33.60708-21.722954 5.253613-10.694377-9.023381-25.773449-12.84662-34.155168-6.042323-13.24766-9.197165-24.503492-10.052715-37.590736a72.521246 72.521246 0 0 1-48.405426-31.10727c-16.643125-24.182661-28.072741-69.125782-13.755643-103.267582 1.12291-2.673594 6.683986-8.020783 7.552904-12.098014 1.617525-8.127727-3.074633-18.955784-3.368728-27.591494-1.497213-44.368298 7.5128-82.600697 37.43032-95.982036 12.12475-48.31185 55.530554-64.366784 96.42318-88.375661 15.279592-8.969909 32.083132-14.704769 49.528335-21.108028C522.714429-8.983277 618.482579-4.665422 670.296837 34.516103c21.963577 16.616389 57.081239 51.693947 69.633764 77.093093 33.179306 67.053746 30.813175 179.130821 7.619744 260.675448-3.114737 10.948369-7.64648 27.043407-13.96953 40.197491-4.398063 9.183797-18.086866 27.564758-16.429237 35.679116 1.7111 8.381718 31.214214 30.746335 37.537264 36.882234 11.389512 10.988473 33.032258 25.57293 34.756727 39.435517 1.884884 14.704769-6.496834 34.943878-10.694378 49.180767-14.196786 47.523139-28.072741 91.450294-44.114306 133.800029" fill="#231F20" /><path d="M513.196433 378.554223c1.804676-2.392867 11.696975-6.028955 25.546194 0.641662 0 0-16.415869 2.673594-15.038968 30.104672l-6.844401-1.336797s-7.071657-24.810955-3.662825-29.409537" fill="#F7E4CD" /><path d="M633.080404 613.830524a7.526168 7.526168 0 1 1-7.526168-7.526168 7.526168 7.526168 0 0 1 7.526168 7.526168m7.526168 34.890407a7.526168 7.526168 0 1 1-7.526168-7.526169 7.526168 7.526168 0 0 1 7.526168 7.526169" fill="#1D1919" /></svg>