<?xml version="1.0" standalone="no"?><!DOCTYPE svg PUBLIC "-//W3C//DTD SVG 1.1//EN" "http://www.w3.org/Graphics/SVG/1.1/DTD/svg11.dtd"><svg t="1631024927979" class="icon" viewBox="0 0 1024 1024" version="1.1" xmlns="http://www.w3.org/2000/svg" p-id="9574" xmlns:xlink="http://www.w3.org/1999/xlink" width="200" height="200"><defs><style type="text/css"></style></defs><path d="M512 38.4c-7.68 0-33.28 7.68-33.28 7.68L140.8 209.92s-15.36 7.68-20.48 12.8c-2.56 5.12-5.12 20.48-5.12 20.48L28.16 616.96l-2.56 12.8s-2.56 10.24 2.56 15.36l5.12 10.24 5.12 10.24 245.76 304.64s7.68 10.24 12.8 12.8c5.12 5.12 23.04 2.56 23.04 2.56h386.56s20.48 0 25.6-2.56c7.68-5.12 15.36-17.92 15.36-17.92l232.96-291.84s15.36-20.48 17.92-28.16c2.56-20.48-5.12-40.96-5.12-40.96L913.92 253.44s-5.12-23.04-7.68-30.72c-5.12-5.12-25.6-17.92-25.6-17.92l-332.8-156.16s-25.6-10.24-35.84-10.24z" fill="#114cdb" p-id="9575" data-spm-anchor-id="a313x.7781069.0.i43" class="selected"></path><path d="M849.92 586.24c-17.92-5.12-20.48 0-46.08-5.12-7.68-2.56-20.48-5.12-30.72-17.92 2.56-10.24 2.56-23.04 2.56-33.28 0-51.2-15.36-102.4-43.52-143.36 5.12-10.24 10.24-20.48 20.48-28.16 20.48-15.36 23.04-12.8 38.4-25.6 10.24-7.68 15.36-23.04 7.68-30.72-7.68-7.68-20.48-7.68-33.28 0-15.36 10.24-12.8 15.36-33.28 30.72-7.68 5.12-17.92 12.8-33.28 12.8a256 256 0 0 0-166.4-79.36c-5.12-10.24-10.24-23.04-10.24-33.28 0-25.6 5.12-25.6 5.12-46.08 0-15.36-7.68-25.6-20.48-25.6s-20.48 10.24-20.48 25.6c0 17.92 5.12 20.48 5.12 46.08 0 7.68 0 23.04-10.24 33.28-64 5.12-122.88 35.84-166.4 81.92-10.24-2.56-23.04-5.12-30.72-12.8-17.92-15.36-17.92-20.48-33.28-30.72-10.24-7.68-25.6-10.24-33.28 0-7.68 7.68-2.56 23.04 7.68 30.72 15.36 10.24 17.92 10.24 38.4 25.6 7.68 5.12 15.36 12.8 20.48 28.16-28.16 43.52-43.52 92.16-43.52 143.36 0 12.8 0 23.04 2.56 35.84-7.68 7.68-17.92 12.8-28.16 15.36-23.04 5.12-28.16 0-46.08 5.12-12.8 2.56-23.04 12.8-20.48 25.6s15.36 15.36 28.16 12.8c28.16-7.68 28.16-12.8 51.2-17.92 7.68-2.56 20.48-5.12 33.28 0 20.48 61.44 61.44 112.64 115.2 143.36l-2.56 2.56c0 12.8 0 23.04-5.12 35.84-10.24 20.48-15.36 23.04-23.04 38.4-5.12 12.8-2.56 25.6 7.68 30.72 10.24 5.12 23.04-2.56 28.16-15.36 7.68-15.36 5.12-20.48 15.36-43.52 2.56-7.68 10.24-20.48 23.04-25.6v-2.56c61.44 23.04 128 23.04 186.88 0 7.68 5.12 15.36 15.36 20.48 23.04 10.24 23.04 7.68 25.6 15.36 43.52 5.12 12.8 17.92 20.48 28.16 15.36 10.24-5.12 12.8-17.92 7.68-30.72-7.68-15.36-12.8-17.92-23.04-38.4-5.12-10.24-7.68-20.48-7.68-30.72 53.76-33.28 94.72-84.48 115.2-143.36 10.24-2.56 23.04-5.12 35.84-2.56 23.04 5.12 25.6 10.24 43.52 15.36 12.8 2.56 25.6-2.56 28.16-12.8 0-12.8-7.68-23.04-20.48-25.6z m-189.44-204.8c-35.84 28.16-79.36 56.32-99.84 66.56-2.56-2.56-7.68-5.12-10.24-5.12-5.12-17.92-10.24-71.68-10.24-120.32 43.52 5.12 87.04 25.6 120.32 58.88z m-133.12 115.2l20.48 23.04-5.12 30.72-28.16 15.36-28.16-12.8-7.68-30.72 17.92-25.6h30.72z m-38.4-174.08c0 46.08-5.12 97.28-10.24 120.32-5.12 2.56-7.68 5.12-12.8 7.68-20.48-10.24-61.44-38.4-99.84-66.56 30.72-35.84 74.24-56.32 122.88-61.44z m-186.88 207.36c0-38.4 10.24-76.8 30.72-110.08 35.84 30.72 71.68 64 87.04 84.48 0 2.56-2.56 7.68-2.56 12.8-20.48 10.24-69.12 25.6-115.2 35.84v-23.04z m97.28 176.64c-38.4-25.6-69.12-61.44-84.48-107.52 43.52-10.24 94.72-17.92 117.76-15.36 2.56 2.56 5.12 7.68 7.68 10.24-2.56 15.36-20.48 66.56-40.96 112.64z m112.64 33.28c-23.04 0-46.08-5.12-69.12-12.8 23.04-43.52 48.64-87.04 64-102.4H522.24c15.36 17.92 40.96 61.44 61.44 102.4-25.6 7.68-48.64 12.8-71.68 12.8z m112.64-33.28c-17.92-40.96-35.84-87.04-43.52-112.64 2.56-2.56 5.12-5.12 7.68-10.24 20.48 0 71.68 7.68 120.32 15.36-15.36 43.52-46.08 81.92-84.48 107.52z m94.72-153.6c-46.08-10.24-92.16-25.6-115.2-38.4 0-5.12-2.56-7.68-2.56-10.24 12.8-15.36 51.2-51.2 87.04-84.48 20.48 33.28 30.72 71.68 30.72 110.08 2.56 7.68 2.56 15.36 0 23.04z" fill="#F2F2F2" p-id="9576"></path></svg>