<?xml version="1.0" standalone="no"?><!DOCTYPE svg PUBLIC "-//W3C//DTD SVG 1.1//EN" "http://www.w3.org/Graphics/SVG/1.1/DTD/svg11.dtd"><svg class="icon" width="200px" height="104.01px" viewBox="0 0 1969 1024" version="1.1" xmlns="http://www.w3.org/2000/svg"><path d="M1563.136 475.136v27.136c-13.312-18.432-34.304-29.696-57.344-30.208-45.056 2.56-80.384 40.96-78.336 86.016-1.536 45.056 33.28 82.944 78.336 84.992 23.04 0 44.544-11.264 57.344-30.208v23.04h38.4V475.136h-38.4z m-53.248 130.56c-25.088-0.512-45.568-20.48-46.08-46.08-0.512-25.088 19.456-45.568 44.544-46.08h1.024c25.088 0.512 45.568 20.48 46.08 46.08 0.512 25.088-19.456 45.568-44.544 46.08h-1.024z m-130.56-130.048l-55.296 62.976 2.048-118.784h-39.936v218.112h38.4v-78.336l57.344 78.336h44.032L1358.336 547.84l67.072-70.656-46.08-1.536z m-185.856 2.048h-18.432v30.208h18.944v130.048h38.4V507.904h25.088v-30.208h-25.088c-3.584-36.352 25.088-30.208 25.088-30.208v-28.672c-73.216-4.608-64 58.88-64 58.88z m-78.848 26.624c-13.312-18.432-34.304-29.696-57.344-30.208-45.056 2.56-80.384 40.96-78.336 86.016-2.56 45.056 32.256 83.456 77.312 86.016h1.024c23.04 0 44.032-11.776 57.344-30.208v23.04h38.4V479.232h-38.4v25.088z m-51.712 102.912c-25.088-0.512-45.568-20.48-46.08-46.08 0-25.088 19.968-45.568 45.056-45.568h1.024c25.088 0.512 45.568 20.48 46.08 45.568-1.024 25.6-21.504 45.568-47.104 46.08h1.024z m-92.672-129.536l-46.08-2.048-53.76 62.976V419.84h-40.448v218.112h40.448v-78.336l57.344 78.336h44.032L904.704 547.84l65.536-70.144z" fill="#55ABE5" /><path d="M654.336 502.272c39.936 0 72.704-32.768 72.704-72.704 0-39.936-32.768-72.704-72.704-72.704-39.936 0-72.704 32.768-72.704 72.704v0.512c0.512 7.168 1.536 14.336 3.584 20.992l-34.304 23.04c-14.336-17.92-34.816-30.72-57.344-34.816V399.36c33.28-7.68 56.832-36.864 57.344-70.656 0-39.936-32.768-72.704-72.704-72.704s-72.704 32.768-72.704 72.704c0.512 34.304 24.064 63.488 57.344 70.656v41.984c-50.176 10.24-82.944 59.392-72.704 109.568 7.168 36.864 36.352 65.536 72.704 72.704v44.032c-33.28 7.168-56.832 36.352-57.344 70.656 0 39.936 32.768 72.704 72.704 72.704s72.704-32.768 72.704-72.704c-0.512-33.792-24.064-63.488-57.344-70.656V624.64c22.528-3.072 43.008-14.848 57.344-32.768l34.304 25.088c-2.048 6.656-3.584 13.824-3.584 20.992 1.024 39.936 34.304 71.68 74.752 70.656s71.68-34.304 70.656-74.752c-1.024-39.424-33.28-70.656-72.704-70.656-21.504 0-41.472 9.216-55.808 25.088l-34.304-25.088c4.096-10.24 6.144-21.504 5.632-32.768 0-10.24-2.048-20.992-5.632-30.208l33.28-23.04c13.824 16.896 34.816 25.6 56.832 25.088z m0-109.056a34.304 34.304 0 1 1-34.304 34.304c0-18.944 14.848-34.304 33.792-34.304h0.512zM441.344 328.192a34.304 34.304 0 1 1 34.304 34.304c-18.944 0-33.792-15.36-33.792-34.304h-0.512z m71.168 409.6c0.512 18.944-14.848 34.816-33.792 34.816-18.944 0.512-34.816-14.848-34.816-33.792-0.512-18.944 14.848-34.816 33.792-34.816h0.512c18.432-0.512 33.792 14.848 34.304 33.792z m-34.304-155.648c-27.648-2.048-48.128-26.112-46.08-53.76 2.048-24.576 21.504-44.032 46.08-46.08 27.136 0 49.664 22.016 49.664 49.152v0.512c-0.512 27.648-22.528 49.664-49.664 50.176z m176.128 21.504c18.432 0 33.792 14.336 34.304 32.768 0.512 18.432-13.824 33.792-31.744 34.304h-2.56c-18.944 0-34.304-15.36-34.304-34.816 0-18.944 15.36-33.792 34.304-34.304v2.048z" fill="#0171F1" /></svg>