<?xml version="1.0" standalone="no"?><!DOCTYPE svg PUBLIC "-//W3C//DTD SVG 1.1//EN" "http://www.w3.org/Graphics/SVG/1.1/DTD/svg11.dtd"><svg class="icon" width="200px" height="200.00px" viewBox="0 0 1024 1024" version="1.1" xmlns="http://www.w3.org/2000/svg"><path fill="#d81e06" d="M334.891789 234.391579C309.632 206.757053 306.366316 169.677474 290.113684 137.778526 274.304 118.467368 263.632842 88.360421 237.903158 80.842105 205.709474 107.348211 218.014316 152.555789 217.338947 188.240842c-0.808421 25.916632 33.195789 50.858105 13.699369 58.984421-2.265263 36.934737 7.476211 72.921263 9.685895 109.642105-1.189053 12.948211 8.961684 24.619789 20.333473 33.520843-11.907368-7.493053-20.446316-9.379368-15.814737 15.722105 13.859368 34.955789 21.520842 64.525474 26.172632 103.555368-1.667368 16.980211 21.630316 33.886316 2.199579 37.12 2.135579 31.818105 14.255158 90.053053 8.042105 104.198737 5.194105 33.714526 13.397895 66.728421 17.416421 101.234526-5.276632 15.366737 15.632842 30.266947 23.137684 33.438316-32.579368 8.747789 48.796632 33.165474 6.996211 28.547369-33.623579 3.818105 21.771789 20.161684-12.373895 22.888421-24.365474 14.959158 55.797895-14.721684 15.528421 11.922526-20.303158 18.689684 41.369263-13.254737 14.56 9.829053-16.272842 21.741474-69.288421 56.636632-63.513263 68.267789 32.028632-9.505684 65.603368-59.954526 90.076632-57.003789 1.589895 21.507368-12.648421 67.489684-0.134737 73.049263 8.321684-16.828632 12.842105-71.797895 22.568421-63.632842 2.608842 23.299368 20.655158 34.962526 11.171368 4.697263-0.875789-20.040421-0.853895-47.376842 2.969263-11.146105-1.263158 10.128842 10.453895 33.458526 10.479158 8.872421 32.926316 28.757895-13.012211-42.317474 22.293895-16.325053 29.701053 3.031579-46.656-45.667368-8.976842-25.077895 22.189474 18.290526-0.909474-12.016842 20.651789 0.168421 33.524211-1.269895 49.835789-27.043368 68.441264-45.726316-20.821895 0.202105 30.514526-14.615579 33.035789-32.015157 4.715789-16.692211 47.444211-41.061053 34.480842-49.657264 11.804632-7.183158 37.621895-46.394947 46.770527-70.992842-2.849684 1.478737-6.172632 2.770526-9.431579 3.850106 14.593684-8.072421 37.382737-39.232 33.103157-47.043369-5.679158 2.304-9.443368 3.936-11.738947 4.978526 7.804632-4.171789 28.311579-17.015579 25.392842-32.207157 24.970105-36.468211 27.021474-54.748632 49.111579-89.308632 3.604211-11.002947 13.664-27.435789 9.913263-30.096842 11.203368-9.739789 22.101895-26.251789 19.055158-36.055579 13.160421-22.898526 37.184-74.994526 29.527579-88.538947-23.174737 17.891368 25.706105-19.794526 21.834105-36.469895 9.842526-19.969684-2.317474-17.259789-5.125052-15.964632 14.063158-18.512842 20.564211-49.694316 24.576-55.489684 15.215158-25.002105 24.028632-56.229053 24.842105-86.007579-20.448 37.798737 30.885053-56.122947-17.71621-44.08421-28.148211 16.281263-55.927579 36.653474-72.737685 65.384421-16.161684 13.082947-19.400421 30.741895-18.362947 49.335579-2.453895-12.148211-6.509474-15.789474-15.269053 7.014736-1.549474 3.518316-1.866105 9.852632-1.559579 16.97179-2.032842-8.050526-6.123789-10.330947-13.111579 7.055158-35.456 22.202947-47.589053 65.488842-76.207157 94.298947-8.646737 9.834105-10.595368 24.050526-9.541053 38.208-1.359158-7.402105-2.994526-12.885895-5.834105-13.938526-18.332632 19.225263-31.105684 45.473684-37.010527 67.983158-4.564211-7.056842-22.556632 36.917895-33.210947 49.500631-10.24 9.785263-19.698526 30.72-23.205053 46.31579-3.417263-8.810105-12.377263-5.598316-20.931368 11.477895-12.128 12.412632-22.398316 27.393684-22.949053 44-2.714947-9.12-6.357895-11.087158-15.388631 9.785263-18.201263 29.780211-18.629053-25.377684-26.856421-22.561685 5.643789-21.498947-9.534316-55.653053-12.207158-39.174736 2.741895-33.918316-12.963368-65.042526-22.243369-99.509895-23.117474-101.790316-55.365053-145.613474-69.062737-187.637895z"  /></svg>