<?xml version="1.0" standalone="no"?><!DOCTYPE svg PUBLIC "-//W3C//DTD SVG 1.1//EN" "http://www.w3.org/Graphics/SVG/1.1/DTD/svg11.dtd"><svg t="1631021639942" class="icon" viewBox="0 0 1024 1024" version="1.1" xmlns="http://www.w3.org/2000/svg" p-id="4720" xmlns:xlink="http://www.w3.org/1999/xlink" width="200" height="200"><defs><style type="text/css"></style></defs><path d="M928.256 1024H96.256c-53.248 0-96.256-43.008-96.256-95.744V96.256C0 43.008 43.008 0 96.256 0h832C980.992 0 1024 43.008 1024 96.256v832c0 52.736-43.008 95.744-95.744 95.744z" fill="#006699" p-id="4721"></path><path d="M902.656 731.7504c-6.4512-11.3664-21.2992-30.72-76.288-68.1984-32.768-22.528-67.072-42.8032-102.5024-60.7232-25.088-67.7888-73.6256-155.7504-144.384-261.632C503.1936 227.2256 414.72 179.2 315.8016 198.144c-10.752-10.752-22.016-20.992-33.4848-30.9248-24.9856-21.4016-86.1184-39.6288-121.2416-36.1472-15.872 1.6384-27.8528 7.3728-35.5328 17.3056-17.7152 22.8352-11.776 55.808 70.0416 162.9184 15.5648 45.568 18.944 69.3248 18.944 81.3056 0 25.2928 13.1072 54.3744 40.96 90.7264l-26.2144 89.7024C205.824 653.312 248.32 756.9408 287.8464 793.088c21.0944 19.2512 38.912 16.384 47.616 13.0048 17.6128-6.9632 31.8464-24.1664 40.96-73.3184 5.0176 12.3904 10.0352 24.8832 14.9504 37.376 28.2624 71.8848 56.0128 111.616 87.1424 125.1328 13.1072 4.8128 27.648-1.4336 33.1776-14.2336 5.5296-12.8 0.1024-27.648-12.288-33.8944-7.68-3.3792-28.9792-19.456-59.1872-96.256-25.4976-64.8192-44.1344-108.2368-56.832-132.608-5.5296-10.4448-17.408-15.9744-28.9792-13.5168-11.5712 2.56-19.968 12.5952-20.48 24.4736-3.1744 74.5472-10.6496 106.8032-15.7696 120.4224-21.7088-24.9856-55.808-103.2192-38.7072-161.792 16.9984-58.368 27.0336-92.4672 30.0032-102.6048 2.4576-8.2944 0.6144-17.3056-4.8128-23.9616-34.0992-41.8816-37.7856-61.952-37.7856-68.608 0-24.1664-7.5776-57.6512-23.1424-102.5024-0.9216-2.6624-2.2528-5.12-3.8912-7.2704-44.1344-57.4464-60.3136-86.2208-66.2528-99.84 20.992 1.024 60.928 12.288 74.5472 24.064 14.0288 11.9808 27.4432 24.576 40.1408 37.888 6.5536 6.9632 16.384 9.728 25.6 7.2704 82.1248-21.1968 154.7264 17.3056 222.1056 117.9648C607.8464 477.9008 655.6672 565.248 677.9904 630.1696c2.2528 6.656 7.0656 12.0832 13.4144 15.0528 36.6592 17.92 71.8848 38.5024 105.472 61.6448 5.5296 3.7888 11.0592 7.5776 16.384 11.4688h-80.9984c-10.24 0-19.456 5.9392-23.7568 15.2576-4.3008 9.216-2.7648 20.1728 3.7888 27.9552 26.0096 30.8224 52.736 60.928 80.1792 90.5216 6.3488 7.168 16.0768 10.24 25.3952 8.192 9.3184-2.1504 16.6912-9.1136 19.3536-18.3296 2.6624-9.216 0.1024-19.0464-6.656-25.8048-13.9264-14.848-27.648-30.0032-41.0624-45.3632h90.2144c9.3184 0 17.92-5.0176 22.6304-13.0048 4.8128-7.9872 4.9152-17.92 0.3072-26.0096zM344.2688 318.5664c10.3424 17.8176 18.432 30.6176 24.064 38.2976 6.7584 13.312 17.408 23.9616 24.1664 37.2736l1.6384-1.6384c11.8784-8.192 21.1968-40.5504 2.2528-61.8496-9.9328-14.848-41.8816-14.4384-52.1216-12.0832z m0 0" fill="#FFFFFF" p-id="4722"></path></svg>