<?xml version="1.0" standalone="no"?><!DOCTYPE svg PUBLIC "-//W3C//DTD SVG 1.1//EN" "http://www.w3.org/Graphics/SVG/1.1/DTD/svg11.dtd"><svg t="1631021139506" class="icon" viewBox="0 0 1191 1024" version="1.1" xmlns="http://www.w3.org/2000/svg" p-id="100551" xmlns:xlink="http://www.w3.org/1999/xlink" width="232.6171875" height="200"><defs><style type="text/css"></style></defs><path d="M1144.888 786.353c-63.59 33.145-393.002 168.588-463.132 205.149-70.13 36.566-109.088 36.212-164.492 9.728-55.398-26.484-405.95-168.085-469.099-198.27C16.608 787.88 0.01 775.145 0.01 763.117v-120.44s456.379-99.352 530.055-125.785c73.673-26.433 99.235-27.387 161.932-4.422 62.706 22.975 437.611 90.615 499.577 113.31l-0.028 118.738c0.01 11.906-14.29 24.967-46.657 41.835" fill="#912626" p-id="100552"></path><path d="M1144.865 666.624c-63.586 33.131-392.988 168.578-463.118 205.135-70.126 36.57-109.084 36.212-164.483 9.728-55.403-26.466-405.941-168.09-469.085-198.256-63.143-30.184-64.465-50.958-2.439-75.245 62.027-24.297 410.643-161.07 484.33-187.504 73.671-26.424 99.23-27.387 161.926-4.412 62.701 22.965 390.14 153.297 452.096 175.988 61.98 22.719 64.359 41.426 0.773 74.566" fill="#C6302B" p-id="100553"></path><path d="M1144.888 591.472c-63.59 33.15-393.002 168.587-463.132 205.163-70.13 36.552-109.088 36.198-164.492 9.714-55.403-26.47-405.95-168.085-469.099-198.27C16.608 593 0.01 580.282 0.01 568.25V447.795s456.379-99.346 530.055-125.78c73.673-26.433 99.235-27.392 161.932-4.421 62.71 22.97 437.616 90.596 499.577 113.296l-0.028 118.751c0.01 11.902-14.29 24.963-46.657 41.83" fill="#912626" p-id="100554"></path><path d="M1144.865 471.743c-63.586 33.14-392.988 168.578-463.118 205.149-70.126 36.557-109.084 36.198-164.483 9.714C461.861 660.14 111.323 518.521 48.18 488.35c-63.143-30.175-64.465-50.953-2.439-75.25 62.027-24.283 410.648-161.066 484.33-187.494 73.671-26.429 99.23-27.388 161.926-4.417 62.701 22.965 390.14 153.288 452.096 175.988 61.98 22.714 64.359 41.425 0.773 74.566" fill="#C6302B" p-id="100555"></path><path d="M1144.888 389.367c-63.59 33.14-393.002 168.587-463.132 205.163-70.13 36.557-109.088 36.198-164.492 9.714-55.403-26.47-405.95-168.09-469.099-198.26C16.608 390.888 0.01 378.167 0.01 366.15V245.69s456.379-99.342 530.055-125.77c73.673-26.438 99.235-27.388 161.932-4.422 62.71 22.97 437.616 90.596 499.577 113.296l-0.028 118.747c0.01 11.892-14.29 24.953-46.657 41.826" fill="#912626" p-id="100556"></path><path d="M1144.865 269.638c-63.586 33.14-392.988 168.587-463.118 205.144-70.126 36.557-109.084 36.199-164.483 9.728-55.398-26.484-405.941-168.094-469.08-198.27-63.148-30.17-64.465-50.953-2.444-75.245 62.027-24.287 410.648-161.052 484.33-187.49C603.74-2.928 629.3-3.877 691.995 19.093c62.701 22.97 390.14 153.293 452.096 175.993 61.98 22.696 64.359 41.411 0.773 74.552" fill="#C6302B" p-id="100557"></path><path d="M741.4 152.469l-102.447 10.636-22.933 55.184-37.04-61.58-118.296-10.63 88.269-31.833-26.485-48.864 82.642 32.322 77.907-25.507-21.057 50.525 79.44 29.747m-131.496 267.72l-191.195-79.3 273.967-42.053-82.772 121.353M344.828 183.142c80.872 0 146.432 25.414 146.432 56.758 0 31.353-65.56 56.762-146.432 56.762S198.396 271.248 198.396 239.9c0-31.344 65.559-56.758 146.432-56.758" fill="#FFFFFF" p-id="100558"></path><path d="M862.473 167.554l162.146 64.075-162.006 64.014-0.14-128.093" fill="#621B1C" p-id="100559"></path><path d="M683.087 238.513l179.386-70.959 0.14 128.089-17.59 6.88-161.936-64.01" fill="#9A2928" p-id="100560"></path></svg>