<?xml version="1.0" standalone="no"?><!DOCTYPE svg PUBLIC "-//W3C//DTD SVG 1.1//EN" "http://www.w3.org/Graphics/SVG/1.1/DTD/svg11.dtd"><svg t="1631024357136" class="icon" viewBox="0 0 1024 1024" version="1.1" xmlns="http://www.w3.org/2000/svg" p-id="8529" xmlns:xlink="http://www.w3.org/1999/xlink" width="200" height="200"><defs><style type="text/css"></style></defs><path d="M540.4672 558.677333a16.3328 16.3328 0 0 1-16.5376-15.496533c-0.699733-10.1888 7.031467-15.121067 16.554667-15.837867 8.789333-0.341333 14.779733 4.949333 15.121066 13.738667 0 9.847467-6.690133 15.121067-15.138133 17.578667z m-38.365867 0c-8.448-1.058133-15.479467-5.973333-16.1792-14.779733-0.7168-9.864533 6.314667-15.496533 15.837867-16.554667 9.506133-1.041067 15.837867 4.590933 16.1792 14.08 0.3584 9.864533-5.973333 15.496533-15.837867 17.237334z m-23.586133-11.264c-0.682667 5.973333-6.673067 11.264-16.5376 10.564267-9.506133-0.7168-14.779733-6.3488-14.08-16.213333 0.699733-10.1888 7.748267-15.121067 17.237333-15.121067 9.864533 1.058133 14.4384 7.048533 13.380267 20.770133z m97.860267-5.290666c0-38.7072-33.092267-73.216-70.7584-72.8576-43.281067 0.7168-73.216 31.6928-74.257067 72.157866-0.699733 38.365867 34.491733 72.874667 72.874667 72.874667 39.424 0 71.441067-32.392533 72.1408-72.157867z m-31.675734 139.400533c-0.3584-6.690133 1.757867-13.738667 2.4576-21.469867 1.757867-13.038933-8.448-23.944533-20.411733-20.4288-29.576533 9.864533-55.261867 0.3584-80.605867-11.963733-13.7216-6.690133-13.7216-7.031467-15.837866 8.8064-2.116267 17.237333-10.205867 31.317333-27.101867 37.307733-17.237333 5.973333-33.792 3.1744-46.472533-12.322133-10.205867-12.322133-12.305067-28.859733-4.9152-43.997867 7.389867-14.779733 26.402133-26.043733 40.482133-24.285866 17.578667 2.116267 19.712-2.116267 15.479467-19.712-5.632-23.927467-6.331733-47.872 5.290666-71.099734 8.0896-15.837867 4.9152-25.344-11.264-33.450666-3.8912-1.7408-7.748267-3.157333-11.6224-4.9152-15.138133-6.331733-25.002667-23.586133-21.469866-38.007467 3.515733-15.138133 20.411733-28.501333 35.549866-28.16 16.5376 0.699733 30.976 13.7216 32.733867 29.917867 0.341333 3.157333 0 6.690133 0.699733 9.847466 2.116267 14.4384 13.738667 20.4288 27.101867 15.138134 24.644267-9.147733 49.271467-12.322133 74.973867-1.757867 13.7216 5.973333 21.111467 0.341333 20.411733-14.4384-1.757867-29.917867 17.954133-54.545067 46.455467-58.4192 25.361067-3.1744 51.0464 15.837867 57.736533 43.298133 7.389867 30.6176-30.276267 65.809067-62.293333 58.0608-4.949333-1.041067-9.864533-4.573867-14.097067 1.058134-4.5568 5.973333-1.041067 10.922667 1.774933 15.837866 17.237333 30.976 17.937067 62.293333 1.041067 92.5696-10.5472 18.670933-2.816 29.934933 17.6128 29.576534a63.317333 63.317333 0 0 1 65.826133 60.535466v2.474667c0.682667 37.307733-28.8768 67.584-65.1264 67.584-35.549867-0.3584-64.4096-29.934933-64.4096-67.584zM819.2512 861.354667h-49.988267c-13.021867-0.341333-15.138133-4.573867-9.147733-15.837867 17.595733-32.7168 30.6176-67.2256 33.792-104.533333 0.682667-4.932267 1.757867-9.506133 3.515733-13.7216 2.116267-5.632-1.757867-14.4384 5.290667-16.554667 7.031467-1.757867 11.264 5.9904 15.8208 9.864533l35.208533 33.450667c13.7216 11.264 19.712 25.685333 21.469867 41.5232 1.757867 17.595733 7.031467 34.133333 8.448 51.746133 0.699733 10.205867-2.116267 14.062933-12.322133 14.062934h-52.087467z m-618.4448 0H149.435733c-8.465067 0-14.097067-2.4576-12.680533-12.305067l9.847467-59.136c3.515733-22.869333 21.828267-34.491733 35.908266-49.988267 8.448-9.147733 17.937067-16.554667 27.4432-24.9856 2.816-2.4576 5.9904-5.632 9.864534-3.874133 4.573867 1.757867 4.573867 5.632 4.9152 9.506133 3.1744 45.397333 16.213333 87.637333 38.024533 127.419734 5.973333 10.205867 1.399467 13.7216-8.8064 13.7216l-53.1456-0.341334z m310.801067-97.4848h153.105066c9.5232 0 15.138133-1.774933 18.670934-12.680534 13.7216-43.997867 20.053333-89.053867 21.469866-134.8096 3.874133-92.928-13.021867-182.6816-46.472533-269.2608-33.792-87.6544-80.247467-168.2432-137.2672-242.858666-7.748267-9.864533-13.7216-8.106667-20.411733 0.341333-14.4384 19.3536-29.917867 38.365867-43.298134 58.7776-51.029333 80.605867-93.986133 165.4272-118.613333 258.3552-14.7968 55.261867-24.285867 111.940267-24.644267 168.6016-0.341333 53.1456 8.448 105.591467 23.227734 156.9792 3.1744 11.9808 8.8064 15.837867 20.770133 15.837867l153.463467 0.7168z m260.113066-172.834134c-0.699733 99.618133-14.421333 179.165867-49.9712 253.781334-9.864533 20.411733-12.322133 21.469867-32.034133 10.205866a22.664533 22.664533 0 0 1-4.932267-2.816c-27.4432-22.1696-59.136-23.927467-92.5696-22.869333-64.768 1.399467-129.536 0.699733-194.304 0-16.1792-0.341333-29.917867 3.157333-42.581333 12.322133-6.690133 4.573867-13.7216 8.0896-20.770133 12.322134-22.869333 13.7216-23.227733 13.7216-34.850134-10.922667-17.578667-38.007467-29.559467-77.789867-38.3488-118.971733-15.138133-71.799467-13.738667-143.598933-4.232533-215.7568 5.973333-46.114133 18.295467-91.170133 33.092267-135.168 25.685333-76.731733 61.2352-148.189867 103.8336-217.173334A1371.153067 1371.153067 0 0 1 499.985067 7.4752c9.864533-11.605333 15.138133-8.448 22.8864 1.058133 49.988267 61.2352 94.685867 126.344533 133.051733 195.345067 42.5984 76.373333 76.731733 156.279467 95.744 241.4592 12.322133 53.845333 21.8112 107.707733 20.053333 145.7152zM502.101333 1024l-41.181866-56.32c-16.554667-27.818667-26.385067-58.077867-32.733867-89.412267-3.157333-15.121067 1.058133-20.053333 17.237333-20.053333h131.652267c16.196267 0 19.012267 3.515733 15.837867 20.411733-8.448 48.930133-28.16 92.5696-61.2352 129.536-4.573867 4.9152-8.0896 10.564267-12.322134 15.837867h-17.237333z" fill="#FF8618" p-id="8530"></path></svg>