<?xml version="1.0" standalone="no"?><!DOCTYPE svg PUBLIC "-//W3C//DTD SVG 1.1//EN" "http://www.w3.org/Graphics/SVG/1.1/DTD/svg11.dtd"><svg t="1631023189581" class="icon" viewBox="0 0 1140 1024" version="1.1" xmlns="http://www.w3.org/2000/svg" p-id="2438" xmlns:xlink="http://www.w3.org/1999/xlink" width="222.65625" height="200"><defs><style type="text/css"></style></defs><path d="M1126.221057 450.488423L901.424203 61.511577C881.964176 27.736129 834.096986 0 794.953255 0H345.806903c-38.920052 0-87.010922 27.736129-106.470948 61.511577L14.762779 450.488423c-19.460026 33.775448-19.460026 89.024028 0 122.799476l224.573176 389.200524c19.460026 33.775448 67.327217 61.511577 106.470948 61.511577h449.37003c38.920052 0 86.787243-27.736129 106.470948-61.511577l224.573176-389.200524c19.460026-33.775448 19.460026-89.024028 0-122.799476zM521.841852 215.178681c0-25.499345 20.802097-46.301442 46.301442-46.301442 25.499345 0 46.301442 20.802097 46.301442 46.301442v276.690257c0 25.499345-20.802097 46.301442-46.301442 46.301442-25.499345 0-46.301442-20.802097-46.301442-46.301442V215.178681zM568.143294 805.913499c-173.12713 0-314.044561-140.917431-314.044561-314.044561 0.223678-99.313237 47.196156-192.587156 126.825688-252.085627 18.341634-13.644386 44.064657-9.841852 57.709043 8.499782s9.841852 44.064657-8.499781 57.709043c-102.668414 76.274356-124.141547 221.441678-47.867191 324.110092s221.441678 124.141547 324.110092 47.867191c58.827436-43.6173 93.497597-112.733945 93.497597-186.100481-0.223678-73.590214-35.117519-142.706859-94.392311-186.547837-18.341634-13.420708-22.144168-39.367409-8.72346-57.709043s39.367409-22.144168 57.709043-8.72346c80.300568 59.274792 127.496723 153.219747 127.720402 252.98034 0 173.350808-140.917431 314.044561-314.044561 314.044561z" fill="#6DB33F" p-id="2439"></path></svg>