<?xml version="1.0" standalone="no"?><!DOCTYPE svg PUBLIC "-//W3C//DTD SVG 1.1//EN" "http://www.w3.org/Graphics/SVG/1.1/DTD/svg11.dtd"><svg t="1631021254284" class="icon" viewBox="0 0 1024 1024" version="1.1" xmlns="http://www.w3.org/2000/svg" p-id="105049" xmlns:xlink="http://www.w3.org/1999/xlink" width="200" height="200"><defs><style type="text/css"></style></defs><path d="M0 0h1024v1024H0z" fill="#D8D8D8" fill-opacity="0" p-id="105050"></path><path d="M512 512m-448 0a448 448 0 1 0 896 0 448 448 0 1 0-896 0Z" fill="#85EA2D" p-id="105051"></path><path d="M327.04 212.48v48.704h-10.24l-8.96 0.256c-16.896 1.024-28.224 5.12-34.048 12.16-6.784 8.192-10.176 25.6-10.176 52.288v45.952l-0.256 16c-0.64 20.544-2.56 37.888-5.696 51.968-3.904 17.6-10.24 32-18.88 43.136-8.64 11.136-22.4 21.12-41.088 29.824 24.576 10.24 41.728 25.6 51.392 46.272 9.664 20.608 14.528 52.288 14.528 94.976v44.992l0.192 9.6c0.704 21.312 3.968 35.52 9.792 42.624 6.72 8.128 21.12 12.16 43.136 12.16h10.304v48.768h-17.792l-12.16-0.256c-15.36-0.64-27.52-2.56-36.48-5.824a62.528 62.528 0 0 1-28.544-21.76 90.112 90.112 0 0 1-17.216-39.04c-2.496-14.144-3.904-42.816-4.352-85.952-0.192-37.504-2.24-63.424-6.08-77.824a54.4 54.4 0 0 0-22.016-32.448 64 64 0 0 0-36.608-10.944v-50.944l8.768-0.448a59.968 59.968 0 0 0 29.248-10.688 55.232 55.232 0 0 0 20.928-32.768c3.648-14.528 5.568-40.192 5.76-77.056 0.448-44.16 1.92-73.408 4.48-87.68 2.688-14.272 8.64-27.2 18.048-38.848 8.128-10.24 17.664-17.28 28.736-21.312 11.008-3.904 26.88-5.888 47.488-5.888h17.792z m402.944 0l12.096 0.256c15.232 0.64 27.392 2.56 36.352 5.76a60.608 60.608 0 0 1 28.48 21.76c9.152 12.16 15.04 25.216 17.6 39.424 2.624 14.08 4.224 43.008 4.864 86.528 0 36.672 1.792 62.272 5.312 76.864 3.584 14.592 10.496 25.6 20.8 32.96a63.424 63.424 0 0 0 37.952 11.136v50.944l-7.936 0.448a64.256 64.256 0 0 0-28.928 10.624 54.208 54.208 0 0 0-22.208 33.152c-3.712 14.656-5.76 40.32-5.888 76.992-0.256 43.328-1.6 72.128-4.096 86.4a88.32 88.32 0 0 1-17.472 39.232 62.72 62.72 0 0 1-28.48 21.44c-10.816 3.84-26.944 5.76-48.448 5.76h-17.152v-48.768h9.664l9.088-0.256c17.216-0.96 28.736-4.928 34.56-11.904 6.72-8.128 10.112-25.6 10.112-52.224v-44.992l0.256-15.36c1.024-34.88 5.76-61.312 14.08-79.488 9.6-20.736 26.624-36.16 51.008-46.4-17.728-8.512-30.72-17.6-39.04-27.2-8.384-9.6-14.848-23.488-19.392-41.728-4.608-18.176-6.912-42.24-6.912-72v-45.952l-0.128-9.6c-0.768-21.504-4.16-35.776-10.176-42.88-6.848-8.128-21.376-12.16-43.456-12.16h-9.664V212.48h17.152zM371.2 448a51.2 51.2 0 1 1 0 102.4 51.2 51.2 0 0 1 0-102.4z m160 0a51.2 51.2 0 1 1 0 102.4 51.2 51.2 0 0 1 0-102.4z m160 0a51.2 51.2 0 1 1 0 102.4 51.2 51.2 0 0 1 0-102.4z" fill="#173647" p-id="105052"></path></svg>