<?xml version="1.0" standalone="no"?><!DOCTYPE svg PUBLIC "-//W3C//DTD SVG 1.1//EN" "http://www.w3.org/Graphics/SVG/1.1/DTD/svg11.dtd"><svg t="1631022296932" class="icon" viewBox="0 0 1024 1024" version="1.1" xmlns="http://www.w3.org/2000/svg" p-id="1738" xmlns:xlink="http://www.w3.org/1999/xlink" width="200" height="200"><defs><style type="text/css"></style></defs><path d="M73.685333 0C33.365333 0 0.853333 32.469333 0.853333 72.832v878.336C0.853333 991.573333 33.365333 1024 73.685333 1024h876.629334c40.32 0 72.832-32.469333 72.832-72.832V72.832C1023.146667 32.426667 990.634667 0 950.314667 0H73.685333z m798.464 139.648c-79.402667 157.610667-140.8 325.418667-242.090666 471.296-45.397333 67.157333-99.370667 134.954667-177.493334 164.693333-55.893333 23.552-125.269333 14.378667-169.813333-27.605333-26.794667-22.314667-23.04-61.013333-7.381333-88.533333 40.96-52.224 99.84-86.186667 153.173333-124.373334 163.925333-112 317.696-241.237333 443.605333-395.52z m-72.234666 53.333333c-106.794667 117.376-229.589333 220.16-360.618667 310.144l-0.128 0.085334-0.128 0.128c-56.618667 41.770667-120.96 77.824-170.368 132.864-14.890667 14.208-24.874667 44.458667-22.912 63.189333-26.538667-44.501333-34.133333-111.530667-10.965333-159.573333 22.442667-50.773333 74.325333-77.098667 122.709333-97.792 160.298667-57.728 285.653333-124.842667 442.410667-249.002667z" p-id="1739" fill="#1afa29"></path></svg>