<?xml version="1.0" standalone="no"?><!DOCTYPE svg PUBLIC "-//W3C//DTD SVG 1.1//EN" "http://www.w3.org/Graphics/SVG/1.1/DTD/svg11.dtd"><svg class="icon" width="200px" height="200.00px" viewBox="0 0 1024 1024" version="1.1" xmlns="http://www.w3.org/2000/svg"><path d="M242.688 71.68h537.6C875.52 71.68 952.32 148.48 952.32 242.688v537.6C952.32 875.52 875.52 952.32 781.312 952.32H242.688C148.48 952.32 71.68 876.544 71.68 782.336V242.688C71.68 148.48 148.48 71.68 242.688 71.68z" fill="#FF0000" /><path d="M890.88 610.304c-14.336 30.72-30.72 38.912-63.488 33.792-20.48-3.072-32.768-15.36-35.84-39.936H829.44c8.192 0 12.288-2.048 12.288-11.264v-37.888c0-10.24-6.144-17.408-17.408-17.408h-67.584V645.12h-48.128V537.6h-49.152v-50.176H706.56v-41.984h-30.72v-49.152c10.24 0 20.48-1.024 31.744-2.048v-17.408h49.152c-2.048 13.312 3.072 18.432 17.408 18.432 37.888 1.024 57.344 21.504 58.368 59.392v31.744c30.72-1.024 49.152 11.264 58.368 36.864v87.04zM756.736 443.392c0 15.36-1.024 25.6 0 36.864 0 3.072 5.12 7.168 8.192 7.168 6.144 0 16.384-2.048 17.408-4.096 1.024-11.264 2.048-23.552-2.048-33.792-1.024-4.096-13.312-4.096-23.552-6.144z m-474.112-65.536v222.208c0 31.744-20.48 49.152-50.176 44.032-19.456-3.072-30.72-16.384-30.72-39.936h32.768V377.856h48.128z m207.872 0c-12.288 23.552-25.6 47.104-33.792 69.632 19.456-1.024 37.888-2.048 59.392-3.072l-31.744 63.488c-1.024 3.072-3.072 5.12-4.096 8.192-10.24 21.504-10.24 21.504 13.312 21.504 2.048 0 5.12 0 9.216 1.024-6.144 13.312-12.288 24.576-18.432 35.84-1.024 2.048-4.096 4.096-6.144 4.096-17.408 0-34.816 1.024-52.224-1.024-12.288-1.024-17.408-11.264-12.288-22.528 6.144-14.336 13.312-28.672 19.456-43.008 2.048-5.12 4.096-10.24 8.192-17.408h-23.552c-20.48-1.024-27.648-10.24-19.456-28.672 13.312-29.696 28.672-58.368 43.008-88.064h49.152zM133.12 564.224c3.072-17.408 7.168-33.792 9.216-51.2 3.072-21.504 4.096-43.008 5.12-66.56h51.2c-9.216 58.368 2.048 120.832-36.864 175.104-10.24-18.432-19.456-34.816-28.672-51.2v-6.144z m757.76-137.216c-11.264 19.456-28.672 19.456-47.104 16.384-5.12-24.576-2.048-39.936 11.264-46.08 12.288-5.12 23.552-1.024 35.84 14.336v15.36z" fill="#FFFFFF" /><path d="M608.256 595.968h38.912c8.192 0 10.24 3.072 11.264 11.264 2.048 38.912 3.072 38.912-35.84 38.912H483.328c8.192-17.408 15.36-31.744 23.552-46.08 1.024-3.072 8.192-3.072 12.288-3.072h37.888V445.44h-30.72v-48.128h112.64v47.104h-30.72v151.552zM317.44 446.464h48.128c2.048 29.696 1.024 59.392 8.192 88.064 7.168 32.768-4.096 58.368-20.48 84.992-23.552-20.48-35.84-81.92-35.84-173.056z m87.04 149.504h77.824c-9.216 17.408-15.36 30.72-23.552 45.056-1.024 2.048-5.12 4.096-8.192 4.096h-71.68c10.24-19.456 18.432-34.816 25.6-49.152z" fill="#FFFFFF" /></svg>