<?xml version="1.0" standalone="no"?><!DOCTYPE svg PUBLIC "-//W3C//DTD SVG 1.1//EN" "http://www.w3.org/Graphics/SVG/1.1/DTD/svg11.dtd"><svg class="icon" width="200px" height="200.00px" viewBox="0 0 1024 1024" version="1.1" xmlns="http://www.w3.org/2000/svg"><path d="M157.7984 0.256h708.2496a157.3376 157.3376 0 0 1 157.44 156.2112v710.5536a157.184 157.184 0 0 1-157.44 156.2112H157.7984a157.3376 157.3376 0 0 1-157.4912-156.16V156.416A157.184 157.184 0 0 1 157.7984 0.3072z" fill="#0084FF" /><path d="M243.0464 510.976h110.8992c2.4576-37.12 0-116.8896 0-173.2608H299.8272c-15.1552 33.2288-29.2864 60.2624-57.1904 71.168-12.9024 5.6832-27.648 6.912-41.4208 3.6352 12.288 1.4336 54.3232-150.4768 74.8544-178.3296 14.1312-17.408 35.072-27.904 57.3952-28.672-4.096 29.696-12.288 58.8288-24.576 86.272h205.1584v46.08H402.7392c0 55.808 2.048 135.5776 0 173.2608h128.768l-0.6144 46.592-130.4064-0.6656c-1.2288 10.0352-2.2528 34.4576-3.4816 43.8784 0 0 68.3008 71.3216 104.5504 117.6576v80.1792c-38.7584-51.456-119.296-147.8144-119.296-147.8144-48.5888 123.392-116.4288 167.936-116.4288 167.936H190.976S338.7904 656.896 350.0544 558.08H195.4816l47.616-47.104z m312.6272-222.2592h257.28v465.152l-104.7552 0.4096-77.8752 64-31.5904-64.4096h-43.008V288.768z m209.7152 44.6976h-161.9456v365.7216h9.216l27.648 57.3952 71.3728-57.3952h53.76V333.4144z" fill="#FFFFFF" /></svg>